<svg xmlns="http://www.w3.org/2000/svg" width="2286" height="1181" viewBox="0 0 2286 1181" version="1.1">
	<path d="M 1086.030 22.644 C 1086.014 23.274, 1087.350 25.234, 1089 27 C 1090.650 28.766, 1092 30.618, 1092 31.115 C 1092 31.612, 1093.402 33.477, 1095.115 35.259 C 1098.404 38.681, 1106.340 50.348, 1108.008 54.213 C 1108.551 55.471, 1109.440 57.175, 1109.984 58 C 1111.129 59.736, 1114.757 68.072, 1117.819 76 C 1120.975 84.170, 1125 98.814, 1125 102.125 C 1125 103.721, 1125.414 105.809, 1125.919 106.764 C 1126.425 107.719, 1127.574 113, 1128.474 118.500 C 1129.373 124, 1130.503 130.075, 1130.985 132 C 1131.466 133.925, 1132.377 138.875, 1133.008 143 C 1133.639 147.125, 1134.536 152.300, 1135.001 154.500 C 1135.466 156.700, 1136.136 161.200, 1136.490 164.500 C 1136.844 167.800, 1137.531 172.750, 1138.017 175.500 C 1141.424 194.776, 1146.011 254.106, 1146.018 279 C 1146.025 300.558, 1142.643 341.539, 1139.045 363.500 C 1130.124 417.943, 1107.821 468.638, 1081.312 494.728 L 1076 499.955 1076.008 510.228 C 1076.027 534.789, 1082.778 568.398, 1092.834 594 C 1098.670 608.856, 1098.967 609.199, 1105.324 608.395 C 1112.200 607.526, 1113.337 606.328, 1117.441 595.620 C 1124.694 576.694, 1131.359 547.116, 1136.960 509 C 1138.616 497.725, 1140.465 485.350, 1141.068 481.500 C 1151.175 416.982, 1170.727 375.127, 1196.879 362.022 L 1201.258 359.828 1200.569 354.664 C 1199.925 349.846, 1199.525 347.295, 1197.056 332.250 C 1196.537 329.087, 1195.387 321.550, 1194.500 315.500 C 1193.614 309.450, 1192.483 301.800, 1191.987 298.500 C 1190.224 286.770, 1188.954 277.329, 1187.416 264.500 C 1184.652 241.456, 1180.816 216.101, 1179.018 209 C 1178.531 207.075, 1176.489 197.625, 1174.481 188 C 1171.253 172.532, 1168.701 162.059, 1164.855 148.500 C 1162.693 140.877, 1158.825 128.491, 1157.984 126.500 C 1157.519 125.400, 1156.603 122.700, 1155.949 120.500 C 1151.841 106.703, 1134.431 69.603, 1129.399 63.921 C 1128.629 63.053, 1128 62.002, 1128 61.587 C 1128 59.345, 1106.478 34, 1104.574 34 C 1103.924 34, 1101.866 32.425, 1100 30.500 C 1098.134 28.575, 1095.796 27, 1094.804 27 C 1093.812 27, 1093 26.550, 1093 26 C 1093 25.450, 1092.298 25, 1091.441 25 C 1090.460 25, 1090.160 24.537, 1090.633 23.750 C 1091.191 22.822, 1090.969 22.836, 1089.773 23.805 C 1088.418 24.903, 1087.994 24.824, 1087.111 23.305 C 1086.533 22.312, 1086.047 22.015, 1086.030 22.644 M 1028.787 180.250 C 1009.040 203.179, 994.125 226.020, 979.651 255.500 C 974.752 265.479, 970 275.820, 970 276.502 C 970 276.746, 968.895 279.320, 967.545 282.223 C 960.585 297.183, 949.595 330.679, 942.355 359 C 938.008 376.002, 934.008 395.252, 934.003 399.191 C 934.001 400.671, 933.614 402.121, 933.141 402.413 C 932.669 402.704, 932.017 405.543, 931.692 408.722 C 931.367 411.900, 930.363 419.450, 929.460 425.500 C 925.328 453.198, 923.869 476.441, 925.004 496.500 C 925.962 513.454, 927.393 529.261, 928.397 534 C 928.689 535.375, 929.640 541.450, 930.511 547.500 C 931.383 553.550, 932.503 560.075, 933.001 562 C 933.500 563.925, 935.092 570.450, 936.539 576.500 C 937.987 582.550, 939.583 588.850, 940.087 590.500 C 955.230 640.120, 974.802 678.038, 1002.573 711.559 C 1020.285 732.939, 1029.957 742.149, 1051.303 757.961 C 1058.817 763.526, 1060 763.941, 1060 761.009 C 1060 759.174, 1060.410 759.268, 1065.250 762.210 C 1068.138 763.965, 1071.175 766.099, 1072 766.951 C 1072.825 767.803, 1075.300 769.468, 1077.500 770.650 C 1079.700 771.833, 1083.075 773.668, 1085 774.729 C 1086.925 775.790, 1091.875 777.888, 1096 779.391 C 1100.125 780.894, 1104.281 782.546, 1105.236 783.062 C 1106.191 783.578, 1107.660 784, 1108.500 784 C 1109.340 784, 1110.809 784.410, 1111.764 784.911 C 1112.719 785.412, 1117.100 786.523, 1121.500 787.381 C 1125.900 788.238, 1130.850 789.255, 1132.500 789.639 C 1137.672 790.844, 1177.210 791.190, 1178.360 790.040 C 1178.932 789.468, 1181.222 788.988, 1183.450 788.974 C 1187.003 788.952, 1195.721 787.179, 1207 784.187 C 1222.651 780.034, 1256.573 763.735, 1259.533 758.947 C 1259.855 758.426, 1261.251 758, 1262.635 758 C 1265.811 758, 1274.270 751.533, 1285.541 740.488 C 1290.305 735.820, 1294.495 732.009, 1294.851 732.021 C 1296.790 732.082, 1323.986 702.295, 1323.993 700.103 C 1323.999 698.008, 1327.533 692.825, 1333.207 686.591 C 1341.225 677.781, 1363.691 633.375, 1369.426 615 C 1370.370 611.975, 1371.535 608.600, 1372.014 607.500 C 1372.493 606.400, 1374.043 601.450, 1375.458 596.500 C 1376.874 591.550, 1378.487 585.925, 1379.043 584 C 1387.624 554.290, 1392.247 494.639, 1388.690 459.500 C 1385.366 426.654, 1381.953 405.255, 1376.967 386 C 1376.469 384.075, 1375.175 378.900, 1374.092 374.500 C 1370.901 361.541, 1369.072 354.757, 1367.622 350.500 C 1366.872 348.300, 1365.676 344.475, 1364.964 342 C 1362.734 334.248, 1358.283 320.895, 1354.465 310.500 C 1347.617 291.857, 1346.343 288.506, 1344.576 284.500 C 1343.606 282.300, 1342.230 278.925, 1341.518 277 C 1340.805 275.075, 1338.680 270.125, 1336.794 266 C 1334.908 261.875, 1332.721 256.937, 1331.933 255.026 C 1328.751 247.313, 1309.761 209.736, 1303.348 198.465 C 1299.581 191.845, 1295.917 185.320, 1295.205 183.965 C 1294.493 182.609, 1292.992 180.375, 1291.870 179 L 1289.830 176.500 1290.461 179 C 1290.809 180.375, 1292.364 186.450, 1293.918 192.500 C 1295.472 198.550, 1297.282 206.875, 1297.941 211 C 1298.599 215.125, 1299.529 220.075, 1300.007 222 C 1303.362 235.496, 1306.656 289.080, 1305.151 305.665 C 1304.510 312.724, 1303.992 321.200, 1304.001 324.500 C 1304.020 331.952, 1301.191 358.417, 1299.931 362.571 C 1299.419 364.260, 1299 366.708, 1299 368.011 C 1299 370.664, 1297.713 377.920, 1294.746 392 C 1293.645 397.225, 1292.405 403.300, 1291.990 405.500 C 1291.576 407.700, 1290.067 413.775, 1288.638 419 C 1287.209 424.225, 1285.768 429.625, 1285.437 431 C 1285.105 432.375, 1284.477 434.400, 1284.041 435.500 C 1283.606 436.600, 1282.494 440.200, 1281.571 443.500 C 1280.648 446.800, 1279.489 450.400, 1278.997 451.500 C 1278.504 452.600, 1277.419 455.607, 1276.585 458.183 C 1272.035 472.239, 1264.306 489.321, 1261.674 491.136 C 1261.143 491.501, 1261.403 492.988, 1262.285 494.636 C 1278.862 525.610, 1291.158 585.338, 1288.076 619.919 C 1276.594 748.745, 1157.946 811.403, 1075.651 732.100 C 1034.064 692.024, 1018.041 632.442, 1031.065 566.301 C 1033.582 553.516, 1039.813 531.536, 1044.009 520.640 C 1045.654 516.368, 1047 512.676, 1047 512.436 C 1047 512.196, 1044.996 512, 1042.547 512 C 1028.078 512, 1016.666 497.029, 1010.120 469.461 C 1007.519 458.508, 1006.792 448.138, 1006.300 415 C 1005.750 377.926, 1006.239 368.444, 1011.021 323.500 C 1012.571 308.932, 1016.111 281.946, 1018.040 270 C 1018.528 266.975, 1019.373 261.575, 1019.918 258 C 1020.462 254.425, 1021.643 247.225, 1022.541 242 C 1023.439 236.775, 1024.372 231.150, 1024.614 229.500 C 1024.857 227.850, 1025.484 224.250, 1026.008 221.500 C 1026.532 218.750, 1028.114 210.200, 1029.523 202.500 C 1030.932 194.800, 1032.496 186.925, 1032.998 185 C 1034.274 180.109, 1035.180 174, 1034.630 174 C 1034.376 174, 1031.747 176.813, 1028.787 180.250 M 1194.750 370.846 C 1180.483 387.024, 1173.203 410.793, 1167.292 460.500 C 1161.688 507.615, 1168.739 566.223, 1181.159 575.769 C 1188.189 581.172, 1195 588.058, 1195 589.764 C 1195 590.658, 1193.810 592.633, 1192.356 594.151 C 1189.142 597.505, 1189.722 598.710, 1199.424 608.850 C 1206.176 615.907, 1208.634 617.461, 1215.467 618.993 C 1241.744 624.881, 1248.406 579.265, 1234.056 491.701 C 1231.264 474.662, 1229.360 467.991, 1223.411 454.410 C 1221.554 450.168, 1215.107 426.524, 1212.939 416 C 1212.429 413.525, 1211.599 409.700, 1211.095 407.500 C 1209.103 398.813, 1206.910 388.232, 1206.017 383 C 1204.896 376.437, 1202.156 363.817, 1201.772 363.452 C 1201.622 363.309, 1198.463 366.637, 1194.750 370.846 M 774.500 492.871 C 768.325 496.706, 767.122 498.914, 766.799 507.002 C 766.536 513.585, 766.261 514.517, 764.500 514.797 C 760.405 515.448, 752.144 519.219, 750.203 521.323 C 745.195 526.752, 742.279 535.818, 745 537.500 C 745.550 537.840, 746 539.087, 746 540.271 C 746 542.132, 749.953 552.948, 754.594 563.784 C 755.367 565.590, 756 569.460, 756 572.385 C 756 577.636, 756.936 581.649, 759.525 587.500 C 760.255 589.150, 761.825 593.650, 763.013 597.500 C 764.201 601.350, 765.584 605.281, 766.087 606.236 C 768.235 610.320, 767.175 614.729, 763.500 617 C 761.575 618.190, 760 619.495, 760 619.902 C 760 620.308, 758.380 622.532, 756.401 624.845 L 752.801 629.050 755.535 632.775 C 757.038 634.824, 763.529 641.675, 769.959 648 C 782.727 660.559, 785.440 663.962, 786.301 668.500 C 786.614 670.150, 787.311 673.525, 787.850 676 C 788.388 678.475, 789.102 682.525, 789.436 685 C 789.771 687.475, 790.472 691.975, 790.995 695 C 791.518 698.025, 792.227 702.300, 792.570 704.500 C 793.313 709.272, 797.616 718.894, 799.948 721 C 800.861 721.825, 804.893 729.025, 808.906 737 C 812.920 744.975, 816.833 752.210, 817.602 753.079 C 818.371 753.947, 819 754.951, 819 755.309 C 819 755.668, 820.575 758.423, 822.500 761.433 C 824.425 764.442, 826 767.183, 826 767.523 C 826 767.864, 826.675 768.818, 827.500 769.643 C 828.325 770.468, 829 772.619, 829 774.422 C 829 777.488, 830.068 781.814, 831.982 786.500 C 834.874 793.583, 838.160 807.492, 838.185 812.753 C 838.193 814.542, 838.605 816.256, 839.100 816.562 C 839.595 816.868, 840 820.601, 840 824.859 C 840 829.117, 840.406 833.027, 840.903 833.550 C 841.400 834.072, 842.042 836.525, 842.329 839 C 843.092 845.559, 845.269 854, 846.197 854 C 846.639 854, 847 855.098, 847 856.441 C 847 857.784, 847.457 859.164, 848.015 859.509 C 848.573 859.854, 849.664 861.654, 850.439 863.508 C 852.304 867.973, 860.084 878.298, 873.551 894.183 C 877.429 898.757, 882.154 904.553, 884.051 907.062 C 887.625 911.790, 894.385 920.059, 897 922.903 C 904.475 931.032, 925 957.243, 925 958.660 C 925 959.196, 928.150 963.561, 932 968.360 C 940.304 978.709, 940.601 979.974, 934.750 980.070 C 929.786 980.152, 932.279 981.808, 937.550 981.930 C 939.228 981.968, 941.028 982.381, 941.550 982.846 C 942.073 983.312, 945.650 984.185, 949.500 984.787 C 997.399 992.281, 1009.769 994.358, 1011.288 995.163 C 1012.272 995.685, 1014.972 995.974, 1017.288 995.806 L 1021.500 995.500 1018 993.889 C 1016.075 993.003, 1010.225 991.276, 1005 990.051 C 999.775 988.826, 994.150 987.422, 992.500 986.930 C 990.850 986.439, 985 985.114, 979.500 983.985 C 961.227 980.235, 959.325 979.175, 963.272 974.939 C 965.634 972.403, 966.267 969.147, 964.763 967.263 C 964.220 966.582, 964.012 965.411, 964.300 964.660 C 964.589 963.909, 963.956 962.551, 962.894 961.642 C 961.516 960.462, 961.144 959.272, 961.594 957.482 C 961.950 956.064, 961.699 954.342, 961.018 953.522 C 960.261 952.610, 960.029 950.474, 960.394 947.785 C 960.714 945.428, 960.632 944.039, 960.211 944.697 C 959.242 946.217, 957.881 945.246, 956.079 941.750 C 955.300 940.237, 954.288 939, 953.831 939 C 953.374 939, 953 938.550, 953 938 C 953 937.450, 953.641 937, 954.424 937 C 955.454 937, 955.250 936.328, 953.688 934.574 C 952.182 932.883, 951.300 932.504, 950.779 933.324 C 950.263 934.134, 950.026 934.016, 950.015 932.946 C 950.007 932.091, 948.732 929.391, 947.183 926.946 C 945.634 924.501, 943.845 921.004, 943.209 919.175 C 942.573 917.347, 940.908 914.422, 939.511 912.675 C 935.677 907.884, 935.745 907.995, 932.040 900.500 C 930.136 896.650, 928.231 893.050, 927.805 892.500 C 927.379 891.950, 925.960 890.150, 924.652 888.500 C 923.344 886.850, 921.946 884.454, 921.546 883.175 C 921.145 881.896, 920.574 881.092, 920.277 881.389 C 919.134 882.532, 915.919 879.762, 913.983 875.967 C 912.870 873.785, 911.530 872, 911.005 872 C 909.972 872, 906.008 863.943, 905.988 861.805 C 905.981 861.087, 904.856 858.542, 903.488 856.148 C 902.120 853.754, 901 851.226, 901 850.530 C 901 849.834, 899.425 846.189, 897.500 842.430 C 895.575 838.671, 894 834.588, 894 833.357 C 894 832.125, 893.589 830.864, 893.087 830.554 C 892.585 830.243, 891.867 828.079, 891.491 825.745 C 891.115 823.410, 890.176 820.503, 889.404 819.285 C 888.632 818.067, 888 815.930, 888 814.535 C 888 811.627, 887.219 811.318, 885.569 813.575 C 884.561 814.953, 884.247 814.830, 883.049 812.591 C 882.296 811.184, 880.814 809.758, 879.755 809.422 C 878.325 808.969, 877.980 808.214, 878.414 806.488 C 878.734 805.211, 878.660 804.016, 878.248 803.833 C 876.797 803.187, 873.080 797.166, 872.395 794.350 C 872.014 792.783, 871.094 790.612, 870.351 789.527 C 869.608 788.443, 869 786.787, 869 785.849 C 869 784.911, 868.382 783.524, 867.626 782.768 C 866.870 782.012, 864.812 778.493, 863.053 774.947 C 861.294 771.401, 859.303 767.825, 858.628 767 C 857.953 766.175, 856.523 763.700, 855.450 761.500 C 854.378 759.300, 852.534 756.473, 851.354 755.218 C 847.732 751.365, 840.065 734.804, 839.430 729.460 C 838.747 723.705, 837.223 720.039, 834.744 718.189 C 833.779 717.468, 832.329 715.668, 831.522 714.189 C 830.715 712.710, 828.243 709.491, 826.028 707.036 C 823.812 704.581, 822 701.769, 822 700.786 C 822 699.804, 821.344 699, 820.542 699 C 818.986 699, 814 691.291, 814 688.885 C 814 687.006, 808.500 681, 806.779 681 C 804.647 681, 796.907 673.146, 786.500 660.422 C 784.300 657.732, 781.566 654.624, 780.425 653.516 C 779.285 652.407, 778.042 650.825, 777.664 650 C 776.746 647.993, 774.296 644.190, 769.651 637.560 C 766.020 632.377, 765.878 631.898, 767.130 629.068 C 769.317 624.127, 778.668 620.744, 777.759 625.222 C 777.596 626.028, 778.381 626.403, 779.883 626.238 C 781.194 626.094, 782.879 626.485, 783.628 627.106 C 784.377 627.728, 785.892 628, 786.995 627.712 C 788.098 627.423, 789 627.584, 789 628.068 C 789 629.509, 794.806 632.124, 795.502 630.996 C 796.598 629.223, 798.651 629.938, 799.818 632.500 C 800.445 633.875, 801.354 635, 801.839 635 C 802.324 635, 804.451 636.633, 806.567 638.628 C 808.683 640.624, 810.584 641.749, 810.791 641.128 C 811.307 639.580, 813 639.701, 813 641.287 C 813 641.994, 815.250 644.253, 818 646.306 C 820.750 648.359, 823 650.480, 823 651.019 C 823 651.559, 823.628 652, 824.396 652 C 825.874 652, 832 658.431, 832 659.983 C 832 661.460, 836.606 665.999, 838.115 666.009 C 839.478 666.018, 848.190 672.848, 854.944 679.203 C 856.838 680.985, 860.053 684.931, 862.088 687.971 C 864.123 691.012, 867.186 694.822, 868.894 696.437 C 870.602 698.052, 872 699.927, 872 700.602 C 872 701.749, 874.118 704.631, 878.250 709.105 C 879.212 710.147, 881.070 711, 882.377 711 C 884.032 711, 886.747 713.133, 891.306 718.014 C 898.142 725.333, 902.155 732.568, 908.063 748.226 C 914.500 765.286, 918.249 772.582, 920.016 771.490 C 920.883 770.954, 924.612 773.663, 931 779.468 C 933.475 781.717, 937.975 784.773, 941 786.259 C 944.025 787.745, 947.400 790.111, 948.500 791.517 C 949.600 792.923, 952.234 796.164, 954.354 798.718 C 956.473 801.272, 958.683 804.405, 959.264 805.681 C 959.846 806.956, 960.586 808.002, 960.911 808.003 C 962.127 808.011, 969.193 822.742, 969.543 826 C 969.631 826.825, 969.771 828.016, 969.852 828.646 C 969.933 829.276, 972.362 831.286, 975.250 833.113 C 978.138 834.940, 980.725 836.717, 981 837.063 C 981.275 837.409, 982.719 837.990, 984.208 838.355 C 988.594 839.428, 1017 865.092, 1017 867.981 C 1017 868.542, 1017.900 869, 1019 869 C 1020.100 869, 1021.900 869.900, 1023 871 C 1024.100 872.100, 1025.243 873, 1025.539 873 C 1025.836 873, 1028.227 875.138, 1030.853 877.750 C 1033.480 880.362, 1036.500 882.976, 1037.564 883.557 C 1038.629 884.139, 1040.400 886.488, 1041.500 888.778 C 1042.600 891.068, 1044.313 893.218, 1045.307 893.556 C 1046.301 893.894, 1047.528 895.258, 1048.033 896.586 C 1048.537 897.914, 1049.412 899, 1049.975 899 C 1050.539 899, 1051 899.659, 1051 900.465 C 1051 901.271, 1052.350 903.468, 1054 905.347 C 1055.650 907.226, 1057 909.422, 1057 910.227 C 1057 912.324, 1060.281 915, 1062.853 915 C 1064.279 915, 1065.385 915.882, 1066.005 917.512 C 1066.530 918.894, 1068.094 920.541, 1069.480 921.173 C 1070.866 921.804, 1072 922.729, 1072 923.227 C 1072 923.725, 1074.813 926.969, 1078.250 930.436 C 1085.569 937.817, 1092.268 947.046, 1093.056 950.831 C 1093.361 952.299, 1094.149 953.388, 1094.806 953.250 C 1095.463 953.113, 1096 953.675, 1096 954.500 C 1096 955.325, 1096.378 956, 1096.839 956 C 1097.827 956, 1100.449 961.096, 1100.127 962.391 C 1100.006 962.881, 1100.626 964.799, 1101.505 966.652 C 1102.385 968.506, 1102.861 970.416, 1102.563 970.898 C 1102.266 971.379, 1102.653 972.297, 1103.424 972.937 C 1104.195 973.577, 1105.132 976.327, 1105.507 979.049 C 1105.881 981.771, 1106.595 984.250, 1107.094 984.558 C 1107.592 984.866, 1108 986.585, 1108 988.379 C 1108 990.578, 1108.785 992.321, 1110.410 993.735 C 1112.739 995.759, 1112.802 996.174, 1112.265 1005.915 C 1111.952 1011.602, 1112.100 1015.998, 1112.605 1015.995 C 1113.097 1015.993, 1115.213 1014.418, 1117.306 1012.495 C 1119.399 1010.573, 1122.063 1009, 1123.227 1009 C 1125.958 1009, 1134 1017.353, 1134 1020.189 C 1134 1021.373, 1134.745 1023.165, 1135.655 1024.171 C 1139.488 1028.407, 1126.921 1025.762, 1113.500 1019.509 C 1107.218 1016.582, 1096.905 1014.535, 1095.980 1016.032 C 1095.017 1017.590, 1095.517 1017.855, 1110 1023.485 C 1115.225 1025.516, 1125.411 1030.098, 1132.636 1033.667 L 1145.773 1040.157 1149.636 1038.200 C 1160.206 1032.847, 1219.837 1011.535, 1255 1000.543 C 1269.713 995.944, 1299.036 987.186, 1302 986.505 C 1307.690 985.199, 1318 981.574, 1318 980.880 C 1318 977.901, 1311.218 978.673, 1294 983.612 C 1289.325 984.953, 1283.025 986.747, 1280 987.598 C 1264.808 991.873, 1209.086 1010.194, 1171.500 1023.273 C 1157.070 1028.294, 1149.949 1026.960, 1156.455 1020.455 C 1158.033 1018.876, 1160.046 1018, 1162.094 1018 C 1166.430 1018, 1168.857 1014.623, 1172.500 1003.518 C 1173.399 1000.777, 1174.445 998.302, 1174.825 998.018 C 1175.205 997.733, 1176.365 995.025, 1177.403 992 C 1178.441 988.975, 1179.845 985.825, 1180.523 985 C 1182.155 983.015, 1183.244 977.685, 1183.302 971.390 C 1183.334 967.969, 1183.758 966.317, 1184.584 966.390 C 1185.925 966.510, 1189.704 961.715, 1193.001 955.709 C 1195.362 951.409, 1198.487 948, 1200.067 948 C 1200.661 948, 1200.867 947.156, 1200.531 946.099 C 1200.020 944.487, 1200.408 944.220, 1203.076 944.349 C 1206.345 944.506, 1206.584 944.258, 1209.266 937.951 C 1210.608 934.798, 1211.206 934.391, 1214.636 934.293 C 1216.759 934.233, 1218.800 934.676, 1219.172 935.278 C 1219.643 936.040, 1220.352 935.952, 1221.514 934.988 C 1223.067 933.699, 1223.064 933.520, 1221.465 932.351 C 1220.521 931.661, 1219.994 930.459, 1220.292 929.680 C 1220.896 928.107, 1225.924 926.818, 1227.494 927.835 C 1230.669 929.892, 1237.218 926.765, 1236.216 923.672 C 1236.069 923.216, 1236.747 923.008, 1237.724 923.209 C 1238.780 923.426, 1241.121 921.987, 1243.500 919.657 C 1245.700 917.502, 1248.989 915.106, 1250.809 914.331 C 1252.628 913.557, 1256.247 910.691, 1258.850 907.962 C 1262.654 903.974, 1264.230 903, 1266.878 903 C 1269.573 903, 1270.367 902.487, 1271.236 900.187 C 1272.304 897.357, 1277.854 893.434, 1283.500 891.518 C 1285.150 890.958, 1286.911 889.565, 1287.413 888.422 C 1288.355 886.279, 1291.502 884.529, 1297.284 882.932 C 1299.112 882.427, 1301.514 881.170, 1302.622 880.138 C 1303.730 879.106, 1306.406 877.665, 1308.568 876.936 C 1310.731 876.207, 1314.239 873.899, 1316.365 871.806 C 1318.694 869.513, 1321.191 868, 1322.648 868 C 1323.978 868, 1327.287 866.875, 1330 865.500 C 1332.713 864.125, 1335.961 862.988, 1337.217 862.972 C 1339.074 862.950, 1340.144 861.551, 1342.947 855.480 C 1346.581 847.610, 1353.405 838.924, 1357.851 836.508 C 1360.892 834.855, 1368.615 828, 1367.436 828 C 1367.005 828, 1367.643 826.945, 1368.854 825.655 C 1371.118 823.245, 1370.924 820, 1368.515 820 C 1365.535 820, 1364.933 817.340, 1367.360 814.891 C 1368.663 813.576, 1370.066 811.425, 1370.477 810.111 C 1370.887 808.797, 1374.128 804.859, 1377.679 801.361 C 1383.550 795.576, 1384.515 795, 1388.345 795 C 1396.046 795, 1398.657 799.079, 1395.545 806.250 C 1395.004 807.498, 1395.238 808, 1396.362 808 C 1398.677 808, 1405.250 797.217, 1406.116 792 C 1407.193 785.510, 1409.654 777.347, 1411.981 772.539 C 1413.092 770.245, 1414 767.944, 1414 767.425 C 1414 766.906, 1414.900 765.919, 1416 765.232 C 1417.100 764.545, 1418.010 763.424, 1418.023 762.742 C 1418.036 762.059, 1419.588 759.788, 1421.473 757.696 C 1423.358 755.604, 1425.164 753.058, 1425.488 752.038 C 1425.811 751.019, 1426.700 749.945, 1427.462 749.653 C 1428.225 749.360, 1429.509 747.631, 1430.315 745.810 C 1432.877 740.026, 1435.201 733.567, 1435.463 731.500 C 1436.553 722.922, 1442.575 705.851, 1446.183 701.115 C 1447.182 699.803, 1448 697.831, 1448 696.732 C 1448 695.634, 1448.812 694.007, 1449.805 693.117 C 1450.798 692.228, 1452.227 689.925, 1452.980 688 C 1453.734 686.075, 1455.971 682.025, 1457.952 679 C 1463.209 670.974, 1463.720 670.091, 1466.924 663.500 C 1468.528 660.200, 1470.780 654.125, 1471.928 650 C 1473.497 644.363, 1474.761 641.879, 1477.017 640 C 1478.667 638.625, 1480.014 636.938, 1480.009 636.250 C 1480.004 635.558, 1481.199 635, 1482.686 635 C 1484.163 635, 1486.300 634.173, 1487.436 633.162 C 1488.571 632.151, 1491.124 630.353, 1493.108 629.168 L 1496.717 627.012 1500.837 629.997 C 1505.615 633.458, 1506.761 636.616, 1504.699 640.642 C 1503.894 642.214, 1502.041 648.146, 1500.582 653.824 C 1498.217 663.025, 1491.214 680.528, 1487.570 686.348 C 1486.829 687.532, 1485.658 690.300, 1484.968 692.500 C 1484.277 694.700, 1482.427 699.324, 1480.856 702.775 C 1479.285 706.226, 1478 710.614, 1478 712.525 C 1478 714.436, 1477.550 716, 1477 716 C 1476.450 716, 1476 716.878, 1476 717.950 C 1476 719.023, 1475.280 720.304, 1474.400 720.796 C 1472.550 721.831, 1472.161 728.863, 1473.894 729.934 C 1474.670 730.414, 1474.553 732.193, 1473.493 736.055 C 1472.671 739.050, 1471.515 743.926, 1470.923 746.892 C 1470.331 749.857, 1468.837 753.907, 1467.602 755.892 C 1466.044 758.398, 1465.563 760.263, 1466.027 762 L 1466.695 764.500 1467.097 762 C 1467.371 760.301, 1468.141 759.500, 1469.500 759.500 C 1474.414 759.500, 1469.545 778.142, 1462.927 784.663 C 1460.786 786.773, 1459.026 789.197, 1459.017 790.050 C 1459.008 790.902, 1458.539 792.061, 1457.977 792.623 C 1457.414 793.186, 1456.755 794.675, 1456.513 795.931 C 1456.271 797.187, 1454.819 799.793, 1453.287 801.721 C 1449.891 805.993, 1449.800 806.153, 1446.884 813 C 1445.595 816.025, 1442.855 821.302, 1440.795 824.727 C 1438.735 828.152, 1436.769 832.071, 1436.427 833.436 C 1436.084 834.801, 1435.173 836.442, 1434.402 837.081 C 1433.631 837.721, 1433 838.659, 1433 839.164 C 1433 839.670, 1431.703 842.877, 1430.117 846.292 C 1428.532 849.706, 1426.922 853.957, 1426.540 855.738 C 1426.159 857.519, 1424.781 859.814, 1423.478 860.839 C 1421.824 862.139, 1421.278 863.346, 1421.667 864.836 C 1421.974 866.010, 1421.878 867.764, 1421.454 868.735 C 1421.030 869.706, 1420.773 870.894, 1420.883 871.375 C 1420.993 871.856, 1420.422 872.981, 1419.613 873.875 C 1418.804 874.769, 1418.153 875.858, 1418.166 876.296 C 1418.209 877.769, 1412.677 888.493, 1411.509 889.201 C 1410.873 889.587, 1409.759 891.701, 1409.033 893.900 C 1407.671 898.028, 1398.826 908, 1396.527 908 C 1395.816 908, 1394.998 908.900, 1394.710 910 C 1394.361 911.334, 1393.346 912, 1391.662 912 C 1389.997 912, 1388.408 913.022, 1387 915 C 1385.825 916.650, 1384.329 918, 1383.676 918 C 1383.023 918, 1381.141 919.653, 1379.494 921.673 C 1377.847 923.693, 1375.263 926.790, 1373.750 928.555 C 1372.237 930.320, 1371 932.189, 1371 932.708 C 1371 933.227, 1369.875 934.708, 1368.500 936 C 1367.125 937.292, 1366 938.861, 1366 939.487 C 1366 940.113, 1364.608 941.948, 1362.907 943.563 C 1361.206 945.178, 1359.127 948.200, 1358.288 950.277 C 1357.448 952.354, 1356.028 954.604, 1355.131 955.277 C 1354.234 955.950, 1350.666 959.734, 1347.203 963.687 C 1343.740 967.640, 1338.790 972.307, 1336.203 974.057 L 1331.500 977.241 1337.500 976.660 C 1340.800 976.341, 1348.168 974.976, 1353.874 973.627 C 1363.309 971.395, 1364.644 970.785, 1368.624 966.878 C 1371.031 964.516, 1373 962.153, 1373 961.627 C 1373 960.406, 1383.029 951, 1384.330 951 C 1384.867 951, 1387.825 948.699, 1390.903 945.886 C 1393.982 943.074, 1397.865 939.586, 1399.533 938.136 C 1412.702 926.688, 1440.617 900.058, 1449.466 890.500 C 1456.921 882.449, 1464.689 866.922, 1465.601 858.250 C 1465.962 854.813, 1466.625 852, 1467.074 852 C 1467.522 852, 1468.091 846.263, 1468.338 839.250 C 1468.585 832.237, 1469.284 823.350, 1469.891 819.500 C 1470.498 815.650, 1471.263 810.025, 1471.591 807 C 1471.920 803.975, 1472.987 799.700, 1473.964 797.500 C 1474.940 795.300, 1476.075 792.375, 1476.484 791 C 1476.894 789.625, 1478.034 787.600, 1479.017 786.500 C 1479.999 785.400, 1481.973 782.137, 1483.402 779.250 C 1484.831 776.362, 1487.125 771.752, 1488.500 769.005 C 1489.875 766.258, 1491 763.108, 1491 762.005 C 1491 760.902, 1491.340 760, 1491.756 760 C 1492.172 760, 1493.153 758.537, 1493.938 756.750 C 1494.722 754.962, 1495.929 753.050, 1496.620 752.500 C 1498.848 750.727, 1504.922 737.702, 1505.586 733.273 C 1505.941 730.909, 1506.629 728.729, 1507.115 728.429 C 1507.602 728.128, 1508 726.649, 1508 725.141 C 1508 723.633, 1508.406 721.973, 1508.902 721.450 C 1509.398 720.928, 1510.051 717.125, 1510.353 713 C 1511.310 699.919, 1514.439 686.802, 1519.118 676.261 C 1520.153 673.929, 1521 671.397, 1521 670.633 C 1521 669.869, 1521.675 667.629, 1522.500 665.654 C 1523.325 663.680, 1524 660.806, 1524 659.268 C 1524 657.730, 1524.951 654.003, 1526.113 650.986 C 1527.275 647.969, 1528.451 644.263, 1528.726 642.750 C 1529.002 641.237, 1529.626 640, 1530.113 640 C 1530.601 640, 1531 639.394, 1531 638.654 C 1531 637.913, 1531.692 635.919, 1532.539 634.223 C 1533.385 632.526, 1534.250 629.773, 1534.462 628.104 C 1534.673 626.435, 1535.546 623.817, 1536.403 622.285 C 1540.977 614.104, 1546.937 598.033, 1546.975 593.776 C 1546.989 592.278, 1548.400 587.553, 1550.111 583.276 C 1551.822 578.999, 1554.098 572.575, 1555.169 569 C 1556.241 565.425, 1557.541 561.719, 1558.059 560.764 C 1559.566 557.984, 1559.151 555.273, 1557.138 554.746 C 1554.653 554.097, 1551.993 548.553, 1552.028 544.096 C 1552.054 540.760, 1556.942 524.725, 1558.368 523.299 C 1559.526 522.141, 1559.019 518.945, 1557.590 518.396 C 1556.815 518.099, 1555.919 516.813, 1555.599 515.539 C 1554.121 509.648, 1543.414 504.198, 1535.733 505.427 C 1522.721 507.507, 1508.134 522.449, 1506.340 535.533 C 1506 538.020, 1505.334 540.294, 1504.860 540.586 C 1504.387 540.879, 1504 542.278, 1504 543.695 C 1504 546.191, 1503.852 546.252, 1499.288 545.626 C 1492.167 544.650, 1485.904 547.136, 1479.821 553.354 C 1477.052 556.185, 1474.379 559.400, 1473.881 560.500 C 1473.383 561.600, 1472.155 563.850, 1471.154 565.500 C 1469.396 568.395, 1467.678 573.237, 1467.541 575.679 C 1467.504 576.328, 1467.143 577.191, 1466.737 577.596 C 1466.332 578.002, 1466 579.582, 1466 581.108 C 1466 582.634, 1465.550 584.160, 1465 584.500 C 1464.450 584.840, 1464 587.491, 1464 590.392 C 1464 593.293, 1463.663 596.002, 1463.250 596.412 C 1462.434 597.222, 1460.459 607.673, 1459.171 618 C 1458.464 623.666, 1456.186 629.543, 1450.940 639.236 C 1450.423 640.191, 1450 641.852, 1450 642.927 C 1450 644.002, 1449.602 645.128, 1449.115 645.429 C 1448.629 645.729, 1447.940 648.118, 1447.585 650.738 C 1447.229 653.357, 1446.543 657.525, 1446.059 660 C 1442.881 676.264, 1442.538 677.165, 1435.011 689 C 1433.437 691.475, 1431.201 695.228, 1430.043 697.341 C 1428.885 699.453, 1426.629 702.283, 1425.030 703.629 C 1418.895 708.791, 1403.035 735.603, 1402.985 740.896 C 1402.968 742.694, 1400.911 748.834, 1399.683 750.750 C 1399.242 751.437, 1397.559 752, 1395.941 752 C 1394.323 752, 1393 752.354, 1393 752.787 C 1393 753.220, 1391.602 753.681, 1389.892 753.811 C 1383.686 754.284, 1373.031 761.230, 1372.993 764.827 C 1372.989 765.197, 1369.502 769.174, 1365.243 773.663 C 1360.984 778.153, 1355.475 784.372, 1353 787.483 C 1339.965 803.868, 1336.429 807.494, 1333.179 807.814 C 1328.909 808.234, 1328.314 806.324, 1330.495 799.202 C 1332.763 791.799, 1333.853 784.429, 1335.016 768.647 C 1335.537 761.577, 1336.419 754.152, 1336.976 752.147 C 1338.664 746.068, 1338.245 726.002, 1336.301 719.865 C 1332.566 708.076, 1330.093 705.937, 1327.064 711.874 L 1325.021 715.880 1328.370 719.431 C 1333.099 724.445, 1333.482 728.493, 1331.534 752.891 C 1331.209 756.956, 1330.700 760.676, 1330.403 761.157 C 1330.106 761.638, 1329.634 764.837, 1329.355 768.266 C 1328.957 773.152, 1328.124 775.581, 1325.505 779.500 C 1323.666 782.250, 1322.013 785.625, 1321.831 787 C 1321.514 789.397, 1321.242 789.490, 1315.250 789.246 C 1308.610 788.975, 1306.952 790.304, 1311.750 792.051 C 1323.172 796.212, 1323.653 800.047, 1313.500 806.018 C 1310.026 808.061, 1308.382 808.339, 1301 808.130 C 1296.279 807.997, 1289.378 808.554, 1285.478 809.383 C 1276.506 811.291, 1266.281 810.757, 1264.447 808.284 C 1262.914 806.220, 1264.295 804.131, 1267.603 803.510 C 1268.646 803.314, 1269.725 803.090, 1270 803.013 C 1270.275 802.936, 1269.487 802.466, 1268.250 801.969 C 1263.577 800.090, 1267.434 791, 1272.904 791 C 1273.507 791, 1274.014 790.438, 1274.032 789.750 C 1274.087 787.600, 1276.708 784.898, 1278.900 784.733 C 1280.055 784.646, 1281 784.157, 1281 783.648 C 1281 782.199, 1289.697 783.589, 1298.378 786.426 C 1302.710 787.842, 1306.725 789, 1307.299 789 C 1309.970 789, 1298.587 782.808, 1292.425 780.909 C 1280.243 777.155, 1275 774.904, 1275 773.428 C 1275 772.643, 1274.491 772, 1273.870 772 C 1273.126 772, 1272.909 770.498, 1273.235 767.609 L 1273.730 763.217 1270.619 764.109 C 1265.920 765.457, 1264.048 768.585, 1264.022 775.131 C 1264.002 780.381, 1263.763 780.944, 1260.500 783.432 C 1257.996 785.342, 1257 786.884, 1257 788.851 C 1257 792.792, 1252.383 799.359, 1247.396 802.511 C 1245.039 804.001, 1242.378 806.030, 1241.482 807.020 C 1240.585 808.011, 1236.623 809.601, 1232.676 810.555 C 1223.679 812.729, 1207.398 820.952, 1201 826.553 C 1199.625 827.757, 1194.951 831.158, 1190.614 834.110 C 1176.987 843.388, 1158.117 866.529, 1151.850 881.648 C 1148.794 889.021, 1145.802 888.957, 1144.886 881.500 C 1142.295 860.420, 1124.485 831.649, 1108.302 822.401 C 1105.661 820.892, 1101.700 818.255, 1099.500 816.542 C 1097.300 814.829, 1094.375 812.669, 1093 811.742 C 1084.277 805.862, 1072 791.974, 1066.993 782.323 C 1063.332 775.268, 1062.491 774.341, 1057.618 771.992 C 1055.353 770.900, 1051.307 768.636, 1048.627 766.960 C 1042.599 763.192, 1041.944 763.600, 1046.414 768.341 C 1048.621 770.680, 1050.433 774.053, 1051.466 777.744 C 1053.676 785.640, 1054.895 787.786, 1057.937 789.132 C 1059.737 789.929, 1061.007 791.694, 1062.024 794.814 C 1063.480 799.279, 1066.950 802.005, 1074.500 804.618 L 1076.500 805.310 1074.500 805.762 C 1073.400 806.011, 1072.050 806.577, 1071.500 807.020 C 1070.396 807.908, 1060.803 807.573, 1045.500 806.112 C 1033.281 804.946, 1022.268 804.073, 1019.240 804.031 C 1017.997 804.014, 1016.332 803.212, 1015.540 802.250 C 1010.876 796.582, 998.156 780.885, 996.250 778.445 C 995.013 776.862, 994 774.779, 994 773.818 C 994 772.857, 993.100 771.589, 992 771 C 990.588 770.245, 990 768.906, 990 766.451 C 990 763.386, 988.585 759.474, 986.943 758 C 986.080 757.225, 984.200 751.876, 983.429 748.003 C 983.046 746.079, 981.330 742.866, 979.616 740.863 C 975.858 736.471, 974.002 729.269, 973.893 718.661 C 973.850 714.449, 973.437 710.770, 972.975 710.485 C 972.514 710.200, 972.169 706.811, 972.209 702.955 C 972.276 696.442, 972.401 696.053, 973.969 697.472 C 976.539 699.797, 977.352 699.295, 975.039 696.811 C 973.918 695.608, 973 693.808, 973 692.811 C 973 691.815, 972.649 691, 972.219 691 C 971.790 691, 970.929 689.650, 970.306 688 C 968.753 683.884, 967.549 684.237, 966.046 689.250 C 965.345 691.587, 964.323 694.464, 963.775 695.641 C 962.276 698.862, 963.806 717.394, 965.993 722.500 C 966.464 723.600, 967.066 725.625, 967.330 727 C 967.595 728.375, 968.699 731.975, 969.783 735 C 970.868 738.025, 972.969 744.550, 974.454 749.500 C 975.938 754.450, 977.759 759.850, 978.500 761.500 C 979.242 763.150, 980.855 767.200, 982.086 770.500 C 983.317 773.800, 985.079 777.850, 986.001 779.500 C 996.781 798.773, 997.320 799.704, 1000.321 804.250 C 1002.790 807.990, 1004.108 812.816, 1002.869 813.581 C 1002.327 813.916, 1000.120 813.022, 997.964 811.595 C 995.807 810.168, 993.598 809, 993.055 809 C 992 809, 984.835 805.835, 984 805 C 982.975 803.975, 978.990 802, 977.947 802 C 975.724 802, 969.999 796.673, 967.378 792.166 C 965.885 789.600, 962.766 785.317, 960.446 782.648 C 958.127 779.979, 955.615 776.604, 954.866 775.148 C 954.116 773.692, 953.268 772.275, 952.980 772 C 952.692 771.725, 950.454 768.350, 948.008 764.500 C 943.222 756.969, 935.970 749.386, 932.111 747.878 C 928.883 746.616, 928.036 747.747, 930.658 749.818 C 932.840 751.542, 934.786 756.035, 933.317 755.957 C 932.868 755.933, 930.911 754.920, 928.969 753.707 C 927.027 752.493, 923.997 750.600, 922.235 749.500 C 917.214 746.365, 917.155 744.681, 922.096 745.516 L 926.197 746.209 925.722 740.855 C 925.065 733.464, 923.425 727.698, 919.955 720.586 C 918.330 717.255, 917 714.217, 917 713.835 C 917 712.234, 910.479 699.157, 907.608 695 C 904.174 690.028, 902.447 687.265, 901.356 685 C 900.959 684.175, 899.412 681.925, 897.917 680 C 896.422 678.075, 893.074 672.225, 890.477 667 C 887.880 661.775, 885.372 656.825, 884.905 656 C 884.438 655.175, 883.330 652.925, 882.444 651 C 881.558 649.075, 880.410 646.825, 879.893 646 C 879.375 645.175, 877.821 642.250, 876.439 639.500 C 872.732 632.121, 869.012 625.885, 864.357 619.246 C 862.079 615.996, 859.032 609.999, 857.587 605.919 C 854.583 597.437, 854.512 597.265, 849.510 586.500 C 847.465 582.100, 844.707 575.499, 843.379 571.831 C 842.051 568.163, 840.315 563.909, 839.521 562.378 C 837.581 558.639, 826.804 547.649, 821.495 543.996 C 816.227 540.372, 815 537.120, 815 526.788 C 815 516.805, 811.982 509.995, 803.956 501.866 C 793.992 491.776, 782.107 488.146, 774.500 492.871 M 780.607 503.582 C 780.273 504.452, 780 505.972, 780 506.959 C 780 507.947, 779.325 509.315, 778.500 510 C 776.056 512.029, 776.680 513.546, 783.321 521.720 C 791.356 531.611, 794.524 537.163, 795.890 543.751 C 797.519 551.605, 801.910 563.863, 807.979 577.500 C 808.958 579.700, 810.739 584.875, 811.936 589 C 813.133 593.125, 814.587 598.075, 815.167 600 C 815.747 601.925, 817.485 605.525, 819.028 608 C 822.731 613.937, 829.090 626.367, 831.307 632 C 835.830 643.496, 840.192 649.367, 838.549 641.750 C 838.164 639.962, 836.807 631.750, 835.535 623.500 C 832.538 604.064, 828.134 592.874, 819.730 583.344 C 818.296 581.719, 818.073 580.733, 818.820 579.336 C 820.305 576.562, 817.222 559.367, 814.446 554.940 C 812.278 551.481, 811.131 546.644, 811.022 540.500 C 810.982 538.189, 810.747 537.844, 810 539 C 809.241 540.175, 809.027 539.922, 809.015 537.833 C 809.007 536.367, 809.490 535.003, 810.088 534.804 C 810.833 534.556, 810.950 531.850, 810.459 526.221 C 809.839 519.111, 809.489 518, 807.871 518 C 806.842 518, 806 517.373, 806 516.607 C 806 515.044, 803.306 513.693, 801.910 514.556 C 801.409 514.865, 800.993 514.304, 800.985 513.309 C 800.973 511.891, 800.781 511.798, 800.096 512.878 C 798.915 514.744, 797.368 513.607, 796.533 510.259 C 795.544 506.298, 793.111 504, 789.904 504 C 788.372 504, 786.840 503.550, 786.500 503 C 785.522 501.418, 781.276 501.837, 780.607 503.582 M 1534.884 515.298 C 1533.023 515.774, 1530.600 516.969, 1529.500 517.954 C 1528.400 518.939, 1526.150 520.169, 1524.500 520.687 C 1522.850 521.205, 1521.088 522.538, 1520.584 523.649 C 1520.081 524.760, 1518.731 526.081, 1517.584 526.584 C 1514.316 528.020, 1508.507 539.701, 1510.104 541.626 C 1511.130 542.861, 1511.121 543.307, 1510.058 543.964 C 1509.335 544.411, 1509.053 545.277, 1509.431 545.888 C 1509.809 546.500, 1509.690 547, 1509.166 547 C 1507.812 547, 1506.837 549.816, 1506.460 554.817 C 1506.280 557.191, 1505.590 559.790, 1504.924 560.591 C 1504.259 561.393, 1504.004 562.337, 1504.357 562.691 C 1504.711 563.044, 1505.112 563.146, 1505.250 562.917 C 1506.708 560.487, 1509.361 555.675, 1511.217 552.096 C 1515.375 544.076, 1523.069 538.542, 1531.668 537.386 C 1533.776 537.102, 1536.435 536.685, 1537.578 536.459 C 1539.919 535.996, 1545 531.631, 1545 530.083 C 1545 529.526, 1545.690 527.037, 1546.534 524.552 C 1549.166 516.801, 1544.257 512.902, 1534.884 515.298 M 1548 527.559 C 1548 528.416, 1548.450 528.840, 1549 528.500 C 1549.550 528.160, 1550 527.459, 1550 526.941 C 1550 526.423, 1549.550 526, 1549 526 C 1548.450 526, 1548 526.702, 1548 527.559 M 759.856 530.250 C 756.642 532.985, 755.560 539.985, 757.690 544.265 C 758.447 545.785, 759.734 552.985, 760.550 560.265 C 761.366 567.544, 762.662 576.875, 763.431 581 C 765.467 591.934, 766.372 598.316, 766.103 599.850 C 765.973 600.593, 766.306 600.929, 766.845 600.596 C 767.387 600.261, 768.125 601.783, 768.503 604.016 C 769.390 609.270, 771.014 610.745, 776.762 611.519 C 789.657 613.256, 796.818 616.886, 812.958 629.868 C 826.281 640.585, 827 640.947, 827 636.939 C 827 635.217, 826.364 632.614, 825.587 631.154 C 824.809 629.694, 822.287 624.563, 819.981 619.750 C 817.676 614.938, 815.387 611, 814.895 611 C 814.403 611, 814 610.343, 814 609.540 C 814 608.701, 812.283 607.566, 809.964 606.871 C 807.630 606.172, 806.412 605.363, 807.075 604.954 C 810.058 603.110, 806.367 591.009, 799.699 580.773 C 797.647 577.623, 795.532 573.899, 794.999 572.497 C 794.466 571.096, 793.348 569.687, 792.515 569.367 C 791.633 569.029, 791 567.547, 791 565.821 C 791 564.190, 789.846 560.888, 788.436 558.481 C 786.393 554.995, 786.089 553.702, 786.939 552.114 C 787.577 550.921, 787.634 549.892, 787.080 549.549 C 786.570 549.234, 786.228 547.066, 786.318 544.731 C 786.523 539.426, 782.842 533.546, 779.811 534.339 C 778.680 534.635, 777.651 534.255, 777.332 533.422 C 777.032 532.640, 776.182 532, 775.443 532 C 774.704 532, 773.740 531.378, 773.300 530.617 C 771.757 527.949, 762.846 527.705, 759.856 530.250 M 1528.056 548.534 C 1518.995 553.642, 1514.030 562.066, 1513.498 573.236 C 1513.195 579.604, 1512.695 581.696, 1511.059 583.438 C 1509.926 584.643, 1509 586.695, 1509 587.999 C 1509 591.527, 1505.439 599.177, 1500.709 605.811 C 1499.175 607.963, 1497.656 611.342, 1497.336 613.319 C 1496.762 616.857, 1496.838 616.953, 1502.126 619.410 C 1505.082 620.783, 1509.520 623.670, 1511.988 625.825 L 1516.476 629.745 1514.168 636.911 C 1512.899 640.852, 1509.865 648.062, 1507.426 652.934 C 1504.987 657.806, 1502.698 663.301, 1502.339 665.146 C 1501.980 666.991, 1499.557 673.900, 1496.954 680.500 C 1494.351 687.100, 1491.659 694.300, 1490.972 696.500 C 1490.285 698.700, 1488.941 701.625, 1487.986 703 C 1486.299 705.430, 1482.797 718.432, 1479.556 734.297 C 1478.580 739.076, 1477.988 746.816, 1478.026 754.297 C 1478.061 761.008, 1477.672 767.850, 1477.162 769.500 C 1475.387 775.245, 1472.606 781.530, 1469.812 786.111 C 1466.359 791.772, 1466.153 794.264, 1469.173 793.820 C 1471.270 793.511, 1477.170 786.090, 1477.796 782.974 C 1478.273 780.600, 1485.297 766.532, 1486.187 766.167 C 1486.634 765.983, 1487 765.057, 1487 764.108 C 1487 763.159, 1487.661 761.509, 1488.468 760.441 C 1489.276 759.374, 1489.951 757.668, 1489.968 756.651 C 1490.015 753.957, 1493.025 748.029, 1494.218 748.283 C 1494.780 748.402, 1495.758 747.015, 1496.392 745.200 C 1497.025 743.385, 1498.113 741.548, 1498.808 741.118 C 1499.519 740.679, 1500.020 738.619, 1499.953 736.418 C 1499.725 728.990, 1500.169 722.702, 1501.035 721.103 C 1503.434 716.673, 1506.064 708.777, 1508.063 700 C 1508.752 696.975, 1509.899 693.100, 1510.613 691.389 C 1511.326 689.679, 1512.114 687.204, 1512.363 685.889 C 1512.612 684.575, 1513.380 682.150, 1514.069 680.500 C 1514.759 678.850, 1515.252 677.166, 1515.164 676.758 C 1515.077 676.351, 1516.579 671.443, 1518.503 665.852 C 1520.426 660.262, 1522 654.704, 1522 653.501 C 1522 652.298, 1523.117 649.331, 1524.483 646.907 C 1528.346 640.052, 1529.186 637.841, 1529.764 633 C 1530.060 630.525, 1530.887 627.600, 1531.602 626.500 C 1533.611 623.409, 1537.779 611.638, 1537.318 610.359 C 1536.726 608.718, 1539.837 595.898, 1541.410 593.498 C 1542.743 591.462, 1543.816 587.570, 1544.490 582.321 C 1544.689 580.770, 1545.527 576.350, 1546.351 572.500 C 1548.383 563.017, 1549.222 553, 1547.985 553 C 1547.443 553, 1547 552.395, 1547 551.655 C 1547 546.579, 1535.024 544.606, 1528.056 548.534 M 1489 560.083 C 1489 560.771, 1488.718 561.051, 1488.373 560.707 C 1487.370 559.704, 1482 562.906, 1482 564.507 C 1482 565.307, 1480.875 566.244, 1479.500 566.589 C 1478.125 566.934, 1477 567.773, 1477 568.453 C 1477 569.133, 1475.876 570.996, 1474.501 572.594 C 1473.127 574.193, 1472.002 576.025, 1472.001 576.667 C 1472.001 577.308, 1471.438 578.096, 1470.750 578.417 C 1469.758 578.880, 1469.756 579.120, 1470.741 579.580 C 1471.684 580.021, 1471.616 580.527, 1470.457 581.686 C 1469.240 582.902, 1469.178 583.510, 1470.151 584.682 C 1471.120 585.850, 1471.087 586.328, 1469.989 587.007 C 1469.167 587.515, 1468.512 589.909, 1468.374 592.910 C 1468.247 595.687, 1467.435 598.968, 1466.571 600.202 C 1465.707 601.436, 1465 603.443, 1465 604.663 C 1465 605.884, 1464.549 607.161, 1463.997 607.502 C 1463.336 607.910, 1463.368 608.820, 1464.092 610.173 C 1464.696 611.301, 1464.988 613.283, 1464.740 614.577 C 1464.493 615.871, 1464.788 617.171, 1465.395 617.465 C 1466.160 617.835, 1466.115 618.180, 1465.250 618.583 C 1464.563 618.904, 1464 619.894, 1464 620.783 C 1464 621.788, 1464.347 622.040, 1464.918 621.450 C 1466.346 619.971, 1472 609.319, 1472 608.107 C 1472 607.510, 1474.779 603.112, 1478.176 598.333 C 1487.255 585.558, 1494.911 560.774, 1490.250 559.244 C 1489.563 559.018, 1489 559.396, 1489 560.083 M 1499.199 568.527 C 1497.990 571.016, 1497 573.851, 1497 574.827 C 1497 575.802, 1496.596 577.028, 1496.101 577.550 C 1494.831 578.893, 1493.590 591, 1494.723 591 C 1497.084 591, 1504.395 575.683, 1504.817 569.853 C 1505.374 562.148, 1502.615 561.496, 1499.199 568.527 M 827.772 566.559 C 826.966 567.865, 829.236 577.636, 830.682 579.082 C 831.321 579.721, 831.606 580.864, 831.315 581.622 C 831.024 582.380, 831.235 583, 831.785 583 C 832.334 583, 833.112 584.237, 833.515 585.750 C 833.917 587.263, 834.460 587.919, 834.721 587.208 C 835.085 586.216, 835.520 586.187, 836.597 587.081 C 838.455 588.622, 838.392 590.088, 836.500 589.362 C 834.655 588.654, 834.635 589.067, 836.348 592.371 C 837.090 593.800, 837.944 594.722, 838.247 594.420 C 838.549 594.118, 838.793 594.912, 838.789 596.185 C 838.785 597.458, 839.935 605.025, 841.345 613 C 842.754 620.975, 844.591 631.498, 845.427 636.385 C 846.263 641.272, 847.592 646.255, 848.380 647.458 C 849.168 648.661, 850.366 651.490, 851.042 653.745 C 851.727 656.033, 856.834 663.957, 862.595 671.673 C 868.274 679.278, 874.137 687.750, 875.624 690.500 C 877.110 693.250, 882.965 700.325, 888.633 706.223 C 894.302 712.120, 900.060 718.719, 901.428 720.887 C 902.797 723.054, 904.731 725.429, 905.726 726.164 C 906.721 726.899, 908.325 728.737, 909.290 730.250 C 911.528 733.755, 914.568 733.856, 915.422 730.454 C 915.774 729.054, 915.752 727.408, 915.374 726.797 C 914.997 726.186, 914.743 724.206, 914.811 722.397 C 914.936 719.095, 912.582 713.095, 908.968 707.500 C 907.902 705.850, 906.555 703.412, 905.976 702.081 C 905.396 700.751, 904.315 699.176, 903.573 698.581 C 902.831 697.987, 901.027 695.250, 899.563 692.500 C 898.099 689.750, 895.619 686.375, 894.051 685 C 892.483 683.625, 890.718 680.700, 890.129 678.499 C 889.442 675.934, 888.240 674.140, 886.779 673.499 C 885.443 672.913, 884.382 671.466, 884.215 670 C 883.761 666.026, 880.181 656.415, 875.423 646.400 C 874.090 643.595, 873 640.590, 873 639.722 C 873 638.853, 872.304 637.447, 871.454 636.597 C 870.603 635.746, 869.342 634.027, 868.651 632.775 C 863.957 624.275, 860.573 620.065, 857.975 619.495 C 855.390 618.927, 855.130 618.421, 854.475 612.691 C 854.085 609.286, 853.204 605.375, 852.517 604 C 851.830 602.625, 850.945 599.721, 850.550 597.547 C 849.347 590.912, 846.187 585.600, 844.351 587.123 C 843.018 588.230, 842.863 587.948, 843.160 584.947 C 843.393 582.585, 843.106 581.579, 842.250 581.750 C 841.563 581.888, 841 581.529, 841 580.952 C 841 580.376, 839.809 578.801, 838.354 577.452 C 836.899 576.104, 836.224 575, 836.854 575 C 837.484 575, 838 574.325, 838 573.500 C 838 572.053, 836.882 571.584, 834.250 571.925 C 833.563 572.015, 833 571.168, 833 570.044 C 833 568.696, 832.347 568, 831.083 568 C 830.029 568, 828.987 567.460, 828.766 566.799 C 828.533 566.098, 828.119 565.998, 827.772 566.559 M 1491 596.941 C 1491 597.523, 1490.438 598.016, 1489.750 598.037 C 1488.367 598.077, 1484.182 604.307, 1481.377 610.500 C 1480.381 612.700, 1478.786 615.663, 1477.833 617.084 C 1476.196 619.526, 1476.292 624, 1477.982 624 C 1480.141 624, 1484.110 619.335, 1485.871 614.727 C 1486.969 611.852, 1488.988 606.692, 1490.356 603.261 C 1491.734 599.802, 1492.432 596.767, 1491.922 596.452 C 1491.415 596.138, 1491 596.359, 1491 596.941 M 1457.581 637.562 C 1456.711 638.432, 1456 639.956, 1456 640.949 C 1456 641.942, 1455.325 643.315, 1454.500 644 C 1452.896 645.331, 1452.363 651.512, 1453.936 650.540 C 1454.451 650.221, 1456.103 647.382, 1457.607 644.231 C 1459.112 641.079, 1460.498 638.194, 1460.688 637.819 C 1461.461 636.292, 1459.050 636.093, 1457.581 637.562 M 798 689.378 C 798 690.135, 798.616 691.267, 799.370 691.892 C 800.971 693.221, 804.454 701.880, 803.693 702.641 C 803.407 702.926, 802.022 702.406, 800.615 701.484 L 798.057 699.808 798.687 706.654 C 799.351 713.868, 802.034 720.380, 805.143 722.321 C 806.164 722.959, 807 723.863, 807 724.330 C 807 724.797, 809.229 727.680, 811.953 730.736 C 814.677 733.793, 817.202 737.690, 817.564 739.397 C 817.926 741.103, 818.791 743.175, 819.485 744 C 820.179 744.825, 821.289 747.188, 821.951 749.250 C 822.613 751.313, 823.570 753, 824.078 753 C 824.585 753, 825 753.655, 825 754.456 C 825 755.704, 828.194 761.266, 830.768 764.500 C 831.205 765.050, 832.655 767.300, 833.989 769.500 C 835.323 771.700, 836.771 773.650, 837.207 773.833 C 837.643 774.017, 838 774.536, 838 774.987 C 838 775.439, 839.537 778.527, 841.416 781.851 C 843.295 785.175, 845.157 788.931, 845.555 790.197 C 845.953 791.464, 847.285 793.440, 848.516 794.588 C 849.746 795.736, 851.370 798.436, 852.124 800.588 C 852.877 802.740, 854.954 806.075, 856.738 808 C 858.523 809.925, 859.987 812.077, 859.991 812.781 C 859.996 813.486, 860.663 814.317, 861.473 814.628 C 862.283 814.939, 863.242 816.837, 863.604 818.847 C 863.967 820.856, 864.685 823.317, 865.202 824.315 C 865.718 825.313, 866.286 826.890, 866.465 827.819 C 867.482 833.099, 869.202 838, 870.039 838 C 870.567 838, 871 837.550, 871 837 C 871 836.450, 871.639 836, 872.419 836 C 873.302 836, 874.219 834.213, 874.848 831.267 C 876.895 821.666, 871.268 804.548, 859.473 784.500 C 857.532 781.200, 854.589 775.575, 852.934 772 C 851.280 768.425, 849.073 763.925, 848.031 762 C 844.603 755.666, 837.378 740.585, 835.574 736 C 830.410 722.874, 827.028 717.020, 819.366 707.941 C 814.892 702.640, 810.924 697.335, 810.548 696.152 C 810.173 694.968, 809.507 694, 809.070 694 C 808.633 694, 806.576 692.650, 804.500 691 C 800.442 687.775, 798 687.166, 798 689.378 M 804.543 704.931 C 804.226 705.443, 804.425 706.144, 804.984 706.490 C 805.543 706.835, 806 706.416, 806 705.559 C 806 703.802, 805.400 703.544, 804.543 704.931 M 1390 754.825 C 1388.188 755.427, 1378.503 762, 1379.427 762 C 1379.785 762, 1379.172 762.972, 1378.065 764.161 C 1376.721 765.603, 1376.164 767.344, 1376.389 769.401 C 1376.607 771.387, 1376.154 772.898, 1375.114 773.658 C 1373.708 774.687, 1373.856 774.926, 1376.275 775.533 C 1378.635 776.125, 1379.753 775.574, 1383.774 771.835 C 1386.373 769.418, 1390.691 765.879, 1393.368 763.970 C 1396.680 761.610, 1397.719 760.397, 1396.618 760.177 C 1395.688 759.991, 1395 758.872, 1395 757.543 C 1395 755.154, 1392.726 753.917, 1390 754.825 M 1394.500 770.076 C 1388.089 773.433, 1382.810 782, 1387.151 782 C 1389.355 782, 1404.004 771.410, 1403.751 770 C 1403.341 767.708, 1398.953 767.744, 1394.500 770.076 M 929 771 C 929 771.550, 929.450 772, 930 772 C 930.550 772, 931 771.550, 931 771 C 931 770.450, 930.550 770, 930 770 C 929.450 770, 929 770.450, 929 771 M 931.583 772.866 C 931.152 773.563, 931.070 774.403, 931.400 774.733 C 932.295 775.628, 933.271 774.312, 932.787 772.862 C 932.449 771.846, 932.213 771.846, 931.583 772.866 M 934.357 775.513 C 933.815 776.924, 936.326 779.878, 938.143 779.968 C 940.072 780.064, 939.563 776.944, 937.422 775.541 C 935.186 774.075, 934.909 774.073, 934.357 775.513 M 1395.500 784.228 C 1393.566 785.357, 1393.583 785.417, 1396 786.030 C 1399.120 786.822, 1401 786.206, 1401 784.393 C 1401 782.710, 1398.242 782.628, 1395.500 784.228 M 982.142 809.778 C 980.091 810.117, 979.864 810.568, 980.398 813.238 C 980.945 815.975, 987.259 824.976, 989.233 825.833 C 989.655 826.017, 990 826.587, 990 827.100 C 990 828.963, 1009.373 846, 1011.491 846 C 1012.108 846, 1018.501 850.991, 1027.919 858.824 C 1030.349 860.846, 1035.749 865.695, 1039.919 869.599 C 1044.088 873.504, 1049.075 878.057, 1051 879.718 C 1054.793 882.991, 1067.497 891, 1068.896 891 C 1071.536 891, 1099 920.159, 1099 922.963 C 1099 923.455, 1101.242 925.310, 1103.982 927.086 C 1106.723 928.861, 1109.228 931.143, 1109.550 932.157 C 1109.872 933.171, 1110.554 934, 1111.067 934 C 1111.580 934, 1112 934.689, 1112 935.531 C 1112 936.374, 1112.643 937.309, 1113.429 937.611 C 1115.026 938.224, 1123.982 956.111, 1124.032 958.788 C 1124.049 959.729, 1124.698 961.338, 1125.474 962.362 C 1126.250 963.386, 1127.639 966.761, 1128.562 969.862 C 1129.485 972.963, 1131.576 979.325, 1133.208 984 C 1134.840 988.675, 1136.844 995.200, 1137.662 998.500 C 1138.479 1001.800, 1139.405 1005.175, 1139.718 1006 C 1140.277 1007.472, 1140.455 1008.490, 1140.859 1012.500 C 1141.046 1014.357, 1141.134 1014.373, 1142.088 1012.735 C 1143.451 1010.395, 1143.337 983.341, 1141.886 965 C 1141.255 957.025, 1140.604 947.800, 1140.440 944.500 C 1140.275 941.200, 1139.854 934.450, 1139.505 929.500 C 1139.155 924.550, 1138.924 918.138, 1138.992 915.250 C 1139.059 912.362, 1138.682 910, 1138.153 910 C 1136.974 910, 1130.656 899.010, 1131.405 898.262 C 1131.700 897.967, 1131.054 896.480, 1129.970 894.959 C 1128.887 893.437, 1128 891.698, 1128 891.096 C 1128 889.412, 1125.878 889.795, 1124.377 891.750 C 1123.122 893.384, 1122.991 893.351, 1122.400 891.250 C 1122.052 890.013, 1121.369 889, 1120.883 889 C 1120.398 889, 1120 888.564, 1120 888.031 C 1120 887.499, 1120.662 887.317, 1121.471 887.627 C 1122.279 887.937, 1124.140 887.248, 1125.605 886.096 C 1127.483 884.618, 1127.798 884, 1126.670 884 C 1125.790 884, 1124.553 883.034, 1123.922 881.854 C 1122.714 879.597, 1123.485 879.531, 1128.221 881.482 C 1129.821 882.142, 1129.834 881.974, 1128.398 879.096 C 1127.430 877.155, 1126.094 876, 1124.818 876 C 1123.147 876, 1122.895 875.553, 1123.411 873.500 C 1123.756 872.125, 1123.652 871, 1123.180 871 C 1122.707 871, 1121.782 869.817, 1121.123 868.371 C 1120.464 866.925, 1119.642 866.025, 1119.296 866.371 C 1118.950 866.717, 1115.817 865.434, 1112.333 863.519 C 1107.640 860.939, 1106 860.421, 1106 861.519 C 1106 862.334, 1105.550 863, 1105 863 C 1104.450 863, 1104 862.014, 1104 860.809 C 1104 858.705, 1103.945 858.693, 1102.626 860.497 C 1101.295 862.317, 1101.209 862.307, 1099.885 860.188 C 1099.134 858.985, 1097.897 858, 1097.137 858 C 1096.022 858, 1095.996 857.710, 1097 856.500 C 1099.132 853.931, 1096.575 852.050, 1091.681 852.588 C 1088.659 852.920, 1087.916 852.768, 1089 852.039 C 1090.818 850.817, 1090.846 850.825, 1084 850.532 C 1080.447 850.380, 1077.685 850.828, 1076.199 851.797 C 1074.563 852.863, 1073.587 852.987, 1072.827 852.227 C 1072.238 851.638, 1071.136 851.394, 1070.378 851.685 C 1069.620 851.976, 1069 851.657, 1069 850.976 C 1069 850.137, 1067.948 849.909, 1065.733 850.269 C 1063.065 850.701, 1061.933 850.267, 1059.566 847.899 C 1057.971 846.305, 1056.115 845, 1055.440 845 C 1054.766 845, 1053.935 844.274, 1053.595 843.386 C 1053.175 842.294, 1052.171 841.925, 1050.488 842.247 C 1049.119 842.509, 1047.997 842.448, 1047.994 842.111 C 1047.991 841.775, 1045.938 841.443, 1043.432 841.373 C 1040.144 841.281, 1038.309 840.636, 1036.836 839.055 C 1035.714 837.850, 1034.167 837.106, 1033.398 837.401 C 1031.559 838.106, 1028.858 837.039, 1029.569 835.888 C 1029.876 835.392, 1029.311 834.735, 1028.313 834.429 C 1024.067 833.126, 1020 830.580, 1020 829.226 C 1020 828.261, 1019.325 827.943, 1018.008 828.288 C 1013.825 829.382, 999.054 822.837, 996.986 818.974 C 996.445 817.963, 994.989 816.831, 993.751 816.459 C 992.513 816.087, 989.925 814.344, 988 812.586 C 985.605 810.399, 983.755 809.512, 982.142 809.778 M 1336.500 811 C 1336.151 812.100, 1335.446 813, 1334.933 813 C 1334.420 813, 1334 813.623, 1334 814.383 C 1334 815.144, 1333.041 816.017, 1331.869 816.324 C 1329.859 816.850, 1329.835 816.978, 1331.447 818.590 C 1333.059 820.202, 1333.300 820.154, 1335.696 817.758 C 1337.094 816.361, 1338.400 813.819, 1338.599 812.109 C 1339.001 808.660, 1337.495 807.865, 1336.500 811 M 1311.426 825.465 C 1308.636 828.445, 1305.749 831.021, 1305.010 831.191 C 1303.578 831.520, 1302.334 832.430, 1297.377 836.767 C 1295.659 838.270, 1292.847 840.620, 1291.127 841.989 C 1289.407 843.358, 1288 845.045, 1288 845.739 C 1288 846.433, 1287.508 847, 1286.908 847 C 1286.307 847, 1284.679 847.894, 1283.290 848.986 C 1281.901 850.079, 1280.302 850.687, 1279.737 850.337 C 1279.081 849.932, 1278.935 850.606, 1279.335 852.197 C 1280.077 855.155, 1275.133 857.326, 1267.409 857.434 C 1264.079 857.480, 1263.107 857.837, 1263.503 858.868 C 1263.887 859.868, 1263.428 860.084, 1261.817 859.662 C 1260.600 859.344, 1258.981 859.601, 1258.219 860.234 C 1257.457 860.866, 1256.083 861.461, 1255.167 861.557 C 1254.250 861.652, 1252.263 862.064, 1250.750 862.473 C 1248.779 863.006, 1248 862.849, 1248 861.917 C 1248 861.004, 1247.629 861.088, 1246.750 862.203 C 1245.534 863.745, 1242.729 864.536, 1234.500 865.659 C 1232.300 865.959, 1230.072 866.609, 1229.550 867.102 C 1229.027 867.596, 1227.790 868, 1226.800 868 C 1225.810 868, 1225 868.450, 1225 869 C 1225 869.550, 1223.931 870, 1222.625 870 C 1220.842 870, 1220.105 870.685, 1219.669 872.750 C 1219.042 875.721, 1213.577 879.858, 1209.745 880.263 C 1208.510 880.393, 1206.912 881.288, 1206.193 882.250 C 1205.475 883.212, 1204.012 884, 1202.943 884 C 1201.874 884, 1201 884.477, 1201 885.059 C 1201 885.641, 1200.581 885.859, 1200.069 885.543 C 1198.969 884.863, 1194 889.221, 1194 890.865 C 1194 891.489, 1193.550 892, 1193 892 C 1192.450 892, 1192 892.565, 1192 893.256 C 1192 894.596, 1188.404 896.435, 1183.500 897.602 C 1181.850 897.995, 1179.487 898.972, 1178.250 899.773 C 1177.013 900.574, 1175.986 900.841, 1175.970 900.365 C 1175.953 899.889, 1175.481 900.288, 1174.920 901.250 C 1174.359 902.212, 1173.228 903, 1172.407 903 C 1169.582 903, 1159.861 913.272, 1160.449 915.636 C 1160.761 916.889, 1160.352 918.293, 1159.460 919.034 C 1157.722 920.476, 1151 933.711, 1151 935.690 C 1151 936.410, 1150.546 937, 1149.991 937 C 1149.435 937, 1149.069 938.913, 1149.176 941.250 C 1149.283 943.587, 1148.784 953.083, 1148.066 962.350 C 1147.348 971.618, 1147.031 982.193, 1147.363 985.850 C 1147.694 989.508, 1147.988 995.875, 1148.016 1000 L 1148.067 1007.500 1149.978 1005.207 C 1151.030 1003.946, 1152.117 1001.021, 1152.394 998.707 C 1152.672 996.393, 1154.093 985.275, 1155.553 974 L 1158.208 953.500 1163.836 942.116 C 1168.129 933.435, 1170.301 930.170, 1172.983 928.368 C 1174.917 927.068, 1178.188 924.872, 1180.250 923.488 C 1182.313 922.103, 1184 920.558, 1184 920.053 C 1184 919.548, 1184.900 918.849, 1186 918.500 C 1187.100 918.151, 1188 917.321, 1188 916.655 C 1188 914.585, 1197.256 908.258, 1202.782 906.550 C 1205.483 905.715, 1210.608 901.138, 1210.250 899.880 C 1210.113 899.396, 1210.900 899, 1212 899 C 1213.100 899, 1214 898.354, 1214 897.565 C 1214 896.775, 1215.575 895.560, 1217.500 894.864 C 1219.425 894.168, 1221 893.283, 1221 892.898 C 1221 891.729, 1227.172 888.585, 1233 886.785 C 1236.025 885.851, 1240.956 884.325, 1243.959 883.394 C 1255.650 879.768, 1285.130 863.086, 1290.046 857.315 C 1290.896 856.317, 1293.278 854.167, 1295.338 852.537 C 1297.398 850.907, 1301.863 846.182, 1305.259 842.037 C 1308.656 837.892, 1311.960 834.169, 1312.601 833.765 C 1313.243 833.361, 1314.072 831.004, 1314.444 828.527 C 1314.815 826.050, 1315.767 823.376, 1316.559 822.583 C 1317.352 821.791, 1318 820.886, 1318 820.571 C 1318 819.069, 1316.074 820.503, 1311.426 825.465 M 1464.110 839.250 C 1463.975 843.860, 1464.050 843.339, 1462.986 847.048 C 1462.354 849.253, 1462.428 850.024, 1463.246 849.751 C 1465.063 849.146, 1465.942 844.214, 1465.044 839.672 L 1464.219 835.500 1464.110 839.250 M 1062 853.500 C 1063.375 854.286, 1065.400 854.929, 1066.500 854.929 C 1068.267 854.929, 1068.208 854.762, 1066 853.500 C 1064.625 852.714, 1062.600 852.071, 1061.500 852.071 C 1059.733 852.071, 1059.792 852.238, 1062 853.500 M 1077.161 853.584 C 1077.630 856.002, 1079.220 856.317, 1081.540 854.451 C 1082.777 853.456, 1082.946 853.032, 1082 853.302 C 1081.175 853.537, 1079.672 853.303, 1078.661 852.782 C 1077.183 852.020, 1076.888 852.178, 1077.161 853.584 M 1194.250 895.426 C 1193.013 896.002, 1192 896.986, 1192 897.612 C 1192 898.238, 1190.575 899.035, 1188.834 899.383 C 1185.537 900.043, 1178.470 904.804, 1179.403 905.736 C 1179.697 906.030, 1181.146 905.479, 1182.624 904.511 C 1184.920 903.006, 1185.222 902.979, 1184.706 904.324 C 1183.824 906.623, 1187.984 907.742, 1189.534 905.623 C 1190.187 904.730, 1191.185 904, 1191.753 904 C 1192.808 904, 1194.446 901.106, 1194.159 899.750 C 1193.880 898.431, 1195.240 898.946, 1196.466 900.623 C 1197.267 901.717, 1198.359 902.021, 1199.826 901.555 C 1202.544 900.693, 1202.621 899.332, 1200 898.500 C 1198.900 898.151, 1198 897.247, 1198 896.492 C 1198 894.543, 1196.847 894.216, 1194.250 895.426 M 1136 903 C 1136 903.550, 1136.477 904, 1137.059 904 C 1137.641 904, 1137.840 903.550, 1137.500 903 C 1137.160 902.450, 1136.684 902, 1136.441 902 C 1136.198 902, 1136 902.450, 1136 903 M 1507.500 939.079 C 1504.750 939.528, 1495.750 940.616, 1487.500 941.497 C 1479.250 942.379, 1471.600 943.477, 1470.500 943.938 C 1469.400 944.399, 1464 945.530, 1458.500 946.452 C 1447.449 948.303, 1439.807 949.851, 1436 951.008 C 1434.625 951.426, 1431.475 952.327, 1429 953.010 C 1424.853 954.155, 1417.841 956.932, 1419 956.971 C 1420.191 957.012, 1450.841 951.391, 1462 949.086 C 1467.304 947.991, 1484.573 945.259, 1494.500 943.946 C 1539.737 937.960, 1639.983 943.425, 1715.500 955.993 C 1718.800 956.543, 1724.425 957.419, 1728 957.940 C 1735.561 959.043, 1772.048 965.316, 1783 967.397 C 1787.125 968.180, 1794.550 969.547, 1799.500 970.433 C 1804.450 971.319, 1811.425 972.691, 1815 973.482 C 1818.575 974.273, 1829.375 976.535, 1839 978.510 C 1871.649 985.207, 1895.649 990.506, 1914.500 995.181 C 1918.900 996.272, 1924.525 997.544, 1927 998.007 C 1934.529 999.417, 2004.737 1017.047, 2030.500 1023.997 C 2032.150 1024.442, 2037.775 1025.945, 2043 1027.336 C 2052.353 1029.826, 2063.273 1032.804, 2080 1037.427 C 2084.675 1038.719, 2093.900 1041.206, 2100.500 1042.954 C 2107.100 1044.702, 2113.281 1046.552, 2114.236 1047.066 C 2115.191 1047.580, 2116.766 1048.007, 2117.736 1048.015 C 2120.059 1048.035, 2126.804 1050.404, 2128.031 1051.631 C 2128.562 1052.162, 2129.448 1057.525, 2129.999 1063.548 C 2130.550 1069.572, 2131.284 1076.873, 2131.630 1079.774 L 2132.259 1085.048 2156.522 1084.964 C 2184.029 1084.869, 2180.398 1083.985, 2197.249 1094.887 C 2202.744 1098.442, 2206.716 1101.650, 2206.353 1102.238 C 2205.690 1103.311, 2193.566 1102.987, 2162 1101.055 C 2148.303 1100.217, 2128.390 1099.099, 2099.500 1097.547 C 2094.550 1097.281, 2084.875 1096.817, 2078 1096.516 C 2071.125 1096.216, 2058.300 1095.530, 2049.500 1094.992 C 2040.700 1094.454, 2022.475 1093.534, 2009 1092.948 C 1995.525 1092.362, 1976.850 1091.445, 1967.500 1090.910 C 1958.150 1090.376, 1941.500 1089.519, 1930.500 1089.007 C 1919.500 1088.496, 1901.275 1087.627, 1890 1087.077 C 1878.725 1086.527, 1858.700 1085.611, 1845.500 1085.042 C 1832.300 1084.473, 1813.175 1083.545, 1803 1082.980 C 1792.825 1082.415, 1767.400 1081.242, 1746.500 1080.373 C 1725.600 1079.504, 1705.800 1078.642, 1702.500 1078.457 C 1699.200 1078.272, 1683.935 1077.637, 1668.578 1077.046 C 1653.221 1076.455, 1636.121 1075.767, 1630.578 1075.518 C 1597.598 1074.033, 1511.697 1070.984, 1471 1069.852 C 1414.666 1068.286, 1333.425 1068.218, 1312.500 1069.720 C 1286.323 1071.600, 1271.301 1072.880, 1262 1074.026 C 1240.074 1076.726, 1236.078 1077.366, 1230.107 1079.132 L 1223.715 1081.023 1219.530 1078.571 C 1171.768 1050.580, 1118.522 1051.483, 1066.934 1081.159 C 1064.292 1082.678, 1064.719 1082.382, 1056 1088.751 L 1049.500 1093.500 1017.500 1093.686 C 999.900 1093.788, 944.325 1094.359, 894 1094.955 C 758.149 1096.564, 727.766 1096.870, 598 1097.941 C 532.825 1098.478, 465.550 1099.184, 448.500 1099.509 C 431.450 1099.834, 372.950 1100.518, 318.500 1101.028 C 264.050 1101.538, 180.413 1102.429, 132.640 1103.009 C 68.559 1103.786, 45.426 1103.768, 44.429 1102.941 C 43.348 1102.044, 44.752 1100.231, 51.460 1093.866 C 65.089 1080.933, 63.421 1081.728, 78.904 1080.780 C 94.435 1079.828, 91.108 1081.810, 105.397 1064.999 L 113.294 1055.708 132.921 1056.399 L 152.548 1057.089 162.819 1042.295 C 168.468 1034.158, 173.455 1026.904, 173.900 1026.176 C 175.110 1024.197, 185.182 1022.288, 251 1011.562 C 256.225 1010.710, 263.200 1009.570, 266.500 1009.029 C 269.800 1008.487, 280.150 1006.903, 289.500 1005.509 C 298.850 1004.114, 310.775 1002.326, 316 1001.536 C 321.225 1000.745, 329.325 999.618, 334 999.029 C 342.030 998.019, 345.682 997.513, 362.500 995.079 C 366.350 994.522, 375.575 993.377, 383 992.534 C 390.425 991.692, 399.425 990.565, 403 990.031 C 406.575 989.497, 416.475 988.367, 425 987.522 C 433.525 986.676, 444.100 985.530, 448.500 984.975 C 470.235 982.234, 535.971 976.625, 571 974.523 C 576.775 974.176, 583.995 973.692, 587.045 973.447 C 607.637 971.792, 666.382 970.010, 703.500 969.914 C 746.543 969.803, 751.920 969.537, 752.309 967.500 C 752.796 964.949, 643.834 966.331, 592 969.533 C 575.009 970.583, 554.352 971.981, 548 972.511 C 544.425 972.809, 535.425 973.497, 528 974.040 C 520.575 974.584, 509.325 975.516, 503 976.112 C 496.675 976.708, 487.450 977.556, 482.500 977.997 C 472.093 978.922, 445.372 981.625, 433 983.002 C 415.282 984.976, 383.066 988.820, 374.500 989.983 C 371.200 990.431, 361.075 991.752, 352 992.919 C 342.925 994.086, 333.250 995.474, 330.500 996.004 C 327.750 996.534, 320.100 997.661, 313.500 998.509 C 306.900 999.356, 298.575 1000.511, 295 1001.075 C 288.155 1002.154, 281.385 1003.189, 269 1005.049 C 264.875 1005.669, 257.900 1006.778, 253.500 1007.513 C 249.100 1008.248, 242.125 1009.368, 238 1010.001 C 233.875 1010.635, 228.700 1011.549, 226.500 1012.034 C 224.300 1012.518, 217.550 1013.630, 211.500 1014.505 C 205.450 1015.380, 198.925 1016.487, 197 1016.966 C 195.075 1017.445, 189.202 1018.579, 183.948 1019.487 C 178.694 1020.395, 173.918 1021.444, 173.334 1021.819 C 172.750 1022.193, 167.886 1028.800, 162.525 1036.500 C 149.828 1054.736, 150.782 1053.994, 140.703 1053.466 C 136.192 1053.229, 127.899 1052.822, 122.275 1052.561 L 112.050 1052.087 103.275 1062.249 C 89.493 1078.209, 91.223 1076.984, 82.295 1077.109 C 62.417 1077.385, 66.601 1075.048, 38.124 1101.779 L 32.500 1107.057 102.500 1106.647 C 224.829 1105.931, 406.926 1104.023, 453.500 1102.970 C 478.250 1102.410, 527.247 1101.963, 562.382 1101.976 C 597.517 1101.989, 639.367 1101.569, 655.382 1101.041 C 671.397 1100.514, 721.850 1099.849, 767.500 1099.564 C 949.025 1098.431, 1050.345 1096.945, 1052.500 1095.387 C 1085.186 1071.744, 1117.570 1060.466, 1143.847 1063.574 C 1147.236 1063.975, 1149.598 1063.802, 1150.297 1063.103 C 1151.644 1061.756, 1158.175 1061.678, 1164.674 1062.930 C 1167.328 1063.442, 1172.425 1064.361, 1176 1064.974 C 1188.825 1067.170, 1208.660 1075.487, 1223.462 1084.874 C 1226.173 1086.593, 1229.177 1088, 1230.137 1088 C 1231.097 1088, 1232.160 1088.450, 1232.500 1089 C 1232.840 1089.550, 1233.602 1090, 1234.194 1090 C 1234.786 1090, 1234.084 1089.067, 1232.635 1087.927 C 1229.954 1085.819, 1229.248 1083.583, 1230.933 1082.541 C 1234.877 1080.104, 1267.194 1076.349, 1304 1074.052 C 1311.975 1073.554, 1320.750 1072.863, 1323.500 1072.515 C 1329.222 1071.793, 1436.919 1071.790, 1444.500 1072.512 C 1447.250 1072.775, 1460.975 1073.228, 1475 1073.521 C 1489.025 1073.814, 1504.550 1074.266, 1509.500 1074.527 C 1514.450 1074.788, 1527.050 1075.249, 1537.500 1075.551 C 1560.634 1076.220, 1569.263 1076.528, 1602 1077.855 C 1616.025 1078.423, 1634.475 1079.171, 1643 1079.517 C 1651.525 1079.862, 1666.600 1080.527, 1676.500 1080.993 C 1686.400 1081.460, 1707.100 1082.310, 1722.500 1082.883 C 1748.158 1083.837, 1774.033 1085.015, 1802.500 1086.526 C 1808.550 1086.847, 1823.625 1087.552, 1836 1088.092 C 1860.400 1089.156, 1862.887 1089.275, 1907.500 1091.494 C 1924 1092.315, 1947.175 1093.456, 1959 1094.029 C 1970.825 1094.602, 1983.875 1095.268, 1988 1095.509 C 1992.125 1095.750, 2005.400 1096.388, 2017.500 1096.929 C 2029.600 1097.469, 2044.225 1098.171, 2050 1098.490 C 2055.775 1098.808, 2069.275 1099.552, 2080 1100.143 C 2090.725 1100.734, 2106.925 1101.560, 2116 1101.979 C 2125.075 1102.397, 2142.625 1103.240, 2155 1103.852 C 2167.375 1104.464, 2181.775 1105.175, 2187 1105.432 C 2192.225 1105.688, 2201.900 1106.203, 2208.500 1106.577 C 2220.395 1107.249, 2220.478 1107.239, 2217.989 1105.378 C 2214.893 1103.063, 2211.976 1101.207, 2210 1100.294 C 2209.175 1099.913, 2207.625 1098.788, 2206.555 1097.795 C 2205.486 1096.801, 2203.123 1095.451, 2201.305 1094.793 C 2199.487 1094.136, 2198 1093.250, 2198 1092.824 C 2198 1092.398, 2195.921 1091.026, 2193.381 1089.775 C 2185.818 1086.050, 2185 1085.561, 2185 1084.763 C 2185 1084.343, 2184.127 1084, 2183.059 1084 C 2181.991 1084, 2180.840 1083.550, 2180.500 1083 C 2180.119 1082.383, 2171.546 1082, 2158.110 1082 C 2132.952 1082, 2134.641 1082.756, 2133.543 1071 C 2133.210 1067.425, 2132.667 1061.575, 2132.338 1058 C 2131.571 1049.671, 2131.370 1049.464, 2121.122 1046.454 C 2116.380 1045.061, 2111.719 1043.489, 2110.764 1042.961 C 2109.809 1042.432, 2108.446 1042, 2107.736 1042 C 2107.026 1042, 2103.082 1040.937, 2098.972 1039.638 C 2088.947 1036.468, 2078.756 1033.516, 2069 1030.954 C 2066.525 1030.304, 2063.600 1029.400, 2062.500 1028.946 C 2061.400 1028.491, 2056.900 1027.232, 2052.500 1026.148 C 2042.760 1023.747, 2026.290 1019.434, 2019.500 1017.506 C 2014.801 1016.172, 1998.310 1011.870, 1979 1006.941 C 1974.325 1005.747, 1969.150 1004.567, 1967.500 1004.317 C 1965.850 1004.068, 1963.600 1003.487, 1962.500 1003.026 C 1961.400 1002.565, 1955.100 1000.992, 1948.500 999.529 C 1941.900 998.066, 1935.719 996.449, 1934.764 995.935 C 1933.809 995.421, 1932.150 995, 1931.077 995 C 1930.004 995, 1925.386 994.055, 1920.813 992.900 C 1916.241 991.746, 1911.150 990.590, 1909.500 990.332 C 1907.850 990.075, 1905.600 989.493, 1904.500 989.039 C 1903.400 988.586, 1897.775 987.277, 1892 986.131 C 1886.225 984.985, 1876.325 982.871, 1870 981.434 C 1852.993 977.570, 1853.444 977.665, 1833 973.601 C 1828.875 972.781, 1819.650 970.944, 1812.500 969.519 C 1796.912 966.413, 1784.976 964.200, 1757 959.226 C 1750.675 958.101, 1743.925 956.900, 1742 956.557 C 1740.075 956.213, 1734.225 955.309, 1729 954.546 C 1720.302 953.277, 1716.301 952.666, 1698.500 949.888 C 1695.200 949.373, 1688.511 948.536, 1683.635 948.030 C 1678.759 947.523, 1673.359 946.798, 1671.635 946.419 C 1668.727 945.780, 1664.948 945.336, 1643.500 943.113 C 1639.100 942.657, 1627.175 941.754, 1617 941.106 C 1606.825 940.458, 1595.998 939.494, 1592.940 938.964 C 1586.304 937.814, 1514.661 937.910, 1507.500 939.079 M 1543.500 965.053 C 1503.131 966.613, 1470.527 969.630, 1425 976.017 C 1395.071 980.216, 1333.665 992.523, 1315.500 997.964 C 1313.850 998.458, 1309.350 999.615, 1305.500 1000.534 C 1284.738 1005.492, 1238.637 1019.162, 1227.500 1023.664 C 1221.871 1025.938, 1222.408 1026.031, 1229.500 1024.010 C 1249.564 1018.292, 1292.107 1007.684, 1309.500 1004.063 C 1314.450 1003.033, 1321.875 1001.489, 1326 1000.632 C 1330.125 999.775, 1336.425 998.566, 1340 997.946 C 1343.575 997.326, 1348.300 996.470, 1350.500 996.043 C 1352.700 995.617, 1360.575 994.290, 1368 993.094 C 1375.425 991.899, 1385.550 990.267, 1390.500 989.468 C 1395.450 988.670, 1405.350 987.306, 1412.500 986.439 C 1419.650 985.571, 1428.875 984.446, 1433 983.939 C 1514.488 973.922, 1637.909 972.051, 1725 979.511 C 1734.625 980.336, 1747.225 981.218, 1753 981.472 L 1763.500 981.934 1754 980.554 C 1748.775 979.794, 1741.125 978.663, 1737 978.039 C 1728.267 976.718, 1718.135 975.418, 1705.500 973.997 C 1700.550 973.441, 1690.650 972.309, 1683.500 971.482 C 1676.350 970.655, 1658.800 969.123, 1644.500 968.077 C 1621.120 966.368, 1610.917 965.858, 1575 964.607 C 1569.225 964.406, 1555.050 964.607, 1543.500 965.053 M 922.250 979.716 C 923.763 979.945, 926.237 979.945, 927.750 979.716 C 929.263 979.487, 928.025 979.300, 925 979.300 C 921.975 979.300, 920.737 979.487, 922.250 979.716 M 681 992.666 C 654.987 993.108, 587.626 996.319, 557.500 998.554 C 546.500 999.370, 531.425 1000.486, 524 1001.035 C 509.805 1002.085, 498.612 1003.105, 475.500 1005.453 C 467.800 1006.236, 456.325 1007.387, 450 1008.012 C 435.827 1009.412, 397.267 1013.940, 382 1015.996 C 378.425 1016.478, 371.900 1017.339, 367.500 1017.909 C 352.293 1019.880, 337.474 1021.921, 330.500 1023.004 C 326.650 1023.602, 319 1024.726, 313.500 1025.502 C 304.206 1026.813, 297.899 1027.782, 284 1030.034 C 280.975 1030.524, 274.450 1031.577, 269.500 1032.375 C 259.703 1033.954, 242.415 1037.011, 229 1039.537 C 224.325 1040.418, 218.250 1041.532, 215.500 1042.013 L 210.500 1042.889 216.500 1042.527 C 219.800 1042.329, 225.650 1041.663, 229.500 1041.048 C 233.350 1040.433, 241.900 1039.285, 248.500 1038.496 C 255.100 1037.707, 263.875 1036.611, 268 1036.059 C 272.125 1035.508, 283.150 1034.148, 292.500 1033.038 C 301.850 1031.928, 312.875 1030.569, 317 1030.017 C 323.547 1029.142, 336.408 1027.745, 372.500 1023.987 C 391.445 1022.014, 403.060 1020.881, 419 1019.450 C 450.300 1016.640, 458.550 1015.959, 473 1014.990 C 480.975 1014.455, 492.900 1013.582, 499.500 1013.050 C 512.478 1012.004, 542.605 1010.154, 555.500 1009.611 C 559.900 1009.426, 580.825 1008.435, 602 1007.409 C 657.365 1004.726, 792.020 1004.722, 842.500 1007.400 C 861.750 1008.422, 880.650 1009.414, 884.500 1009.605 C 902.313 1010.488, 967.732 1016.098, 982 1017.966 C 986.125 1018.506, 995.350 1019.638, 1002.500 1020.483 C 1016.428 1022.128, 1026.880 1023.544, 1036.500 1025.092 C 1039.800 1025.622, 1048.350 1026.992, 1055.500 1028.136 C 1062.650 1029.280, 1072.100 1030.833, 1076.500 1031.588 C 1085.719 1033.169, 1088.811 1033.264, 1084.500 1031.832 C 1081.322 1030.777, 1079.758 1030.381, 1065.500 1027.021 C 1060.550 1025.854, 1052.900 1024.035, 1048.500 1022.979 C 1044.100 1021.922, 1035.550 1020.092, 1029.500 1018.911 C 1023.450 1017.730, 1016.700 1016.407, 1014.500 1015.972 C 984.854 1010.099, 932.100 1002.925, 897 999.992 C 890.125 999.418, 883.579 998.749, 882.454 998.506 C 880.381 998.058, 838.327 995.587, 814.500 994.513 C 762.544 992.170, 733.699 991.771, 681 992.666 M 1863.250 997.689 C 1864.213 997.941, 1865.787 997.941, 1866.750 997.689 C 1867.713 997.438, 1866.925 997.232, 1865 997.232 C 1863.075 997.232, 1862.287 997.438, 1863.250 997.689 M 1874.750 999.662 C 1875.438 999.940, 1876.563 999.940, 1877.250 999.662 C 1877.938 999.385, 1877.375 999.158, 1876 999.158 C 1874.625 999.158, 1874.063 999.385, 1874.750 999.662 M 1882.500 1001.028 C 1884.150 1001.594, 1891.350 1003.209, 1898.500 1004.618 C 1905.650 1006.026, 1913.300 1007.569, 1915.500 1008.046 C 1917.700 1008.523, 1921.750 1009.347, 1924.500 1009.877 C 1931.641 1011.254, 1978.628 1021.621, 1990.500 1024.439 C 1996 1025.744, 2004.775 1027.795, 2010 1028.996 C 2031.324 1033.898, 2040.678 1036.113, 2044 1037.047 C 2048.508 1038.313, 2063.402 1041.939, 2068.250 1042.950 C 2070.313 1043.380, 2072 1043.342, 2072 1042.866 C 2072 1042.390, 2071.361 1042, 2070.580 1042 C 2069.799 1042, 2063.836 1040.469, 2057.330 1038.598 C 2035.814 1032.411, 2003.828 1024.356, 1981 1019.376 C 1974.675 1017.996, 1967.925 1016.498, 1966 1016.048 C 1959.639 1014.562, 1936.669 1009.845, 1926.500 1007.939 C 1921 1006.907, 1912.900 1005.365, 1908.500 1004.511 C 1890.660 1001.049, 1877.372 999.269, 1882.500 1001.028 M 1500 1009.291 C 1499.725 1009.577, 1494.325 1010.118, 1488 1010.493 C 1452.200 1012.617, 1406.367 1017.973, 1372.628 1023.976 C 1353.878 1027.312, 1357.429 1027.531, 1389 1024.989 C 1446.842 1020.331, 1570.104 1022.255, 1648.500 1029.039 C 1655.100 1029.611, 1666.800 1030.517, 1674.500 1031.054 C 1687.328 1031.949, 1705.441 1033.591, 1730 1036.086 C 1735.225 1036.616, 1744 1037.476, 1749.500 1037.997 C 1755 1038.517, 1765.350 1039.639, 1772.500 1040.489 C 1779.650 1041.340, 1791.800 1042.699, 1799.500 1043.510 C 1807.200 1044.320, 1814.850 1045.197, 1816.500 1045.460 C 1824.378 1046.711, 1829.417 1047.019, 1828 1046.163 C 1826.646 1045.346, 1821.915 1044.474, 1805 1041.927 C 1801.975 1041.471, 1796.800 1040.650, 1793.500 1040.101 C 1780.540 1037.947, 1750.855 1033.477, 1726.500 1030.012 C 1722.650 1029.464, 1716.575 1028.556, 1713 1027.993 C 1706.169 1026.919, 1675.519 1022.909, 1656 1020.535 C 1649.675 1019.766, 1640.450 1018.635, 1635.500 1018.023 C 1613.286 1015.272, 1608.704 1014.797, 1578 1012.065 C 1571.125 1011.454, 1563.700 1010.722, 1561.500 1010.439 C 1555.748 1009.701, 1500.597 1008.671, 1500 1009.291 M 1294.269 1037.693 C 1295.242 1037.947, 1296.592 1037.930, 1297.269 1037.656 C 1297.946 1037.382, 1297.150 1037.175, 1295.500 1037.195 C 1293.850 1037.215, 1293.296 1037.439, 1294.269 1037.693 M 1285.750 1039.662 C 1286.438 1039.940, 1287.563 1039.940, 1288.250 1039.662 C 1288.938 1039.385, 1288.375 1039.158, 1287 1039.158 C 1285.625 1039.158, 1285.063 1039.385, 1285.750 1039.662 M 1280.269 1040.693 C 1281.242 1040.947, 1282.592 1040.930, 1283.269 1040.656 C 1283.946 1040.382, 1283.150 1040.175, 1281.500 1040.195 C 1279.850 1040.215, 1279.296 1040.439, 1280.269 1040.693 M 633 1042.085 C 614.575 1042.475, 593.875 1043.068, 587 1043.403 C 580.125 1043.738, 563.700 1044.518, 550.500 1045.137 C 499.384 1047.535, 501.764 1047.781, 570 1047.151 C 701.079 1045.941, 902.360 1049.216, 960 1053.497 C 968.318 1054.114, 1010.263 1055.966, 1016.417 1055.987 C 1024.626 1056.015, 1018.451 1054.597, 1007.231 1053.877 C 981.247 1052.212, 962.851 1050.965, 950.500 1050.034 C 943.350 1049.494, 926.250 1048.583, 912.500 1048.009 C 898.750 1047.434, 883.675 1046.760, 879 1046.510 C 871.545 1046.111, 855.474 1045.443, 807 1043.516 C 748.714 1041.199, 695.501 1040.761, 633 1042.085 M 1273 1041.678 C 1271.625 1041.901, 1269.600 1042.465, 1268.500 1042.932 C 1267.400 1043.398, 1262.927 1044.616, 1258.559 1045.638 C 1254.192 1046.660, 1251.416 1047.649, 1252.390 1047.837 C 1253.364 1048.024, 1256.262 1047.520, 1258.830 1046.716 C 1261.399 1045.912, 1266.425 1044.684, 1270 1043.986 C 1278.690 1042.289, 1281.216 1040.345, 1273 1041.678 M 2074.750 1044.662 C 2075.438 1044.940, 2076.563 1044.940, 2077.250 1044.662 C 2077.938 1044.385, 2077.375 1044.158, 2076 1044.158 C 2074.625 1044.158, 2074.063 1044.385, 2074.750 1044.662 M 1832.762 1047.707 C 1834.006 1047.946, 1835.806 1047.937, 1836.762 1047.687 C 1837.718 1047.437, 1836.700 1047.241, 1834.500 1047.252 C 1832.300 1047.263, 1831.518 1047.468, 1832.762 1047.707 M 490.813 1048.683 C 491.534 1048.972, 492.397 1048.936, 492.729 1048.604 C 493.061 1048.272, 492.471 1048.036, 491.417 1048.079 C 490.252 1048.127, 490.015 1048.364, 490.813 1048.683 M 468.264 1049.718 C 469.784 1049.947, 472.034 1049.941, 473.264 1049.704 C 474.494 1049.467, 473.250 1049.279, 470.500 1049.286 C 467.750 1049.294, 466.744 1049.488, 468.264 1049.718 M 477.750 1049.662 C 478.438 1049.940, 479.563 1049.940, 480.250 1049.662 C 480.938 1049.385, 480.375 1049.158, 479 1049.158 C 477.625 1049.158, 477.063 1049.385, 477.750 1049.662 M 1245.269 1049.693 C 1246.242 1049.947, 1247.592 1049.930, 1248.269 1049.656 C 1248.946 1049.382, 1248.150 1049.175, 1246.500 1049.195 C 1244.850 1049.215, 1244.296 1049.439, 1245.269 1049.693 M 1847.269 1049.693 C 1848.242 1049.947, 1849.592 1049.930, 1850.269 1049.656 C 1850.946 1049.382, 1850.150 1049.175, 1848.500 1049.195 C 1846.850 1049.215, 1846.296 1049.439, 1847.269 1049.693 M 1025.250 1056.728 C 1027.313 1056.944, 1030.688 1056.944, 1032.750 1056.728 C 1034.813 1056.513, 1033.125 1056.336, 1029 1056.336 C 1024.875 1056.336, 1023.188 1056.513, 1025.250 1056.728 M 280.269 1061.693 C 281.242 1061.947, 282.592 1061.930, 283.269 1061.656 C 283.946 1061.382, 283.150 1061.175, 281.500 1061.195 C 279.850 1061.215, 279.296 1061.439, 280.269 1061.693 M 261.264 1063.718 C 262.784 1063.947, 265.034 1063.941, 266.264 1063.704 C 267.494 1063.467, 266.250 1063.279, 263.500 1063.286 C 260.750 1063.294, 259.744 1063.488, 261.264 1063.718 M 204.762 1068.707 C 206.006 1068.946, 207.806 1068.937, 208.762 1068.687 C 209.718 1068.437, 208.700 1068.241, 206.500 1068.252 C 204.300 1068.263, 203.518 1068.468, 204.762 1068.707 M 189.269 1070.693 C 190.242 1070.947, 191.592 1070.930, 192.269 1070.656 C 192.946 1070.382, 192.150 1070.175, 190.500 1070.195 C 188.850 1070.215, 188.296 1070.439, 189.269 1070.693 M 1265 1101.146 C 1242.290 1103.182, 1228.378 1109.464, 1223.943 1119.686 C 1222.944 1121.988, 1221.057 1124.572, 1219.749 1125.429 C 1210.952 1131.193, 1189.796 1133.599, 1156.599 1132.610 C 1112.001 1131.283, 1091.869 1129.328, 1083.500 1125.514 C 1073.862 1121.122, 1059.022 1116.688, 1044.500 1113.862 C 1037.218 1112.445, 1002.694 1112.027, 996 1113.275 C 994.075 1113.633, 978.550 1114.201, 961.500 1114.536 C 944.450 1114.872, 929.150 1115.368, 927.500 1115.640 C 924.449 1116.142, 892.905 1117.031, 813 1118.866 C 788.525 1119.428, 762.875 1120.171, 756 1120.517 C 749.125 1120.863, 721.675 1121.590, 695 1122.133 C 625.314 1123.549, 570.780 1124.716, 521 1125.855 C 497.075 1126.402, 450.275 1127.337, 417 1127.932 C 383.725 1128.527, 346.375 1129.468, 334 1130.024 C 321.625 1130.579, 299.251 1131.026, 284.279 1131.017 C 269.308 1131.008, 242.533 1131.458, 224.779 1132.018 C 190.123 1133.110, 99.254 1135.033, 50.755 1135.700 C 21.107 1136.108, 21.009 1136.117, 20.498 1138.305 C 20.217 1139.512, 19.270 1144.100, 18.394 1148.500 C 16.447 1158.285, 15.318 1163.637, 14.437 1167.250 L 13.767 1170 22.538 1170 C 27.362 1170, 46.652 1169.564, 65.404 1169.031 C 84.157 1168.498, 117.950 1167.818, 140.500 1167.519 C 163.050 1167.220, 205.125 1166.557, 234 1166.045 C 262.875 1165.534, 316.200 1164.653, 352.500 1164.087 C 388.800 1163.521, 428.175 1162.743, 440 1162.359 C 451.825 1161.975, 485.350 1161.345, 514.500 1160.961 C 610.291 1159.696, 707.191 1158.090, 725 1157.472 C 734.625 1157.138, 772.425 1156.400, 809 1155.832 C 914.006 1154.201, 974.953 1153.025, 995.500 1152.233 C 1014.434 1151.503, 1014.515 1151.490, 1018.927 1148.500 C 1026.072 1143.658, 1036.315 1143.608, 1047.829 1148.358 C 1058.505 1152.763, 1058.017 1152.738, 1197.498 1155.859 L 1244.496 1156.911 1247.498 1154.077 C 1252.335 1149.510, 1262.480 1143.054, 1265.891 1142.372 C 1267.624 1142.025, 1269.284 1141.350, 1269.580 1140.871 C 1269.876 1140.392, 1272.482 1140, 1275.372 1140 C 1282.019 1140, 1287.582 1142.764, 1299.286 1151.882 L 1308.072 1158.727 1337.786 1159.501 C 1354.129 1159.927, 1409.575 1160.584, 1461 1160.962 C 1512.425 1161.340, 1570.250 1161.970, 1589.500 1162.361 C 1608.750 1162.753, 1672.650 1163.535, 1731.500 1164.101 C 1790.350 1164.667, 1875.625 1165.552, 1921 1166.069 C 1966.375 1166.585, 2029.375 1167.223, 2061 1167.487 C 2092.625 1167.751, 2153.461 1168.483, 2196.192 1169.113 C 2238.922 1169.743, 2274.612 1169.979, 2275.502 1169.638 C 2276.898 1169.102, 2277.077 1167.276, 2276.810 1156.287 L 2276.500 1143.558 2265.500 1142.350 C 2259.450 1141.686, 2238.975 1140.608, 2220 1139.955 C 2201.025 1139.302, 2176.050 1138.339, 2164.500 1137.816 C 2152.950 1137.293, 2133.825 1136.496, 2122 1136.045 C 2067.958 1133.981, 2044.333 1132.953, 2029.500 1132.018 C 2020.700 1131.463, 2007.671 1131.007, 2000.546 1131.005 C 1993.421 1131.002, 1982.846 1130.557, 1977.046 1130.015 C 1971.246 1129.473, 1952.550 1128.545, 1935.500 1127.952 C 1918.450 1127.359, 1894.150 1126.432, 1881.500 1125.892 C 1829.138 1123.656, 1812.254 1122.968, 1788 1122.086 C 1773.975 1121.575, 1758.675 1120.879, 1754 1120.538 C 1746.091 1119.962, 1721.599 1118.920, 1670.500 1116.984 C 1642.426 1115.921, 1579.084 1113.273, 1550 1111.947 C 1510.893 1110.163, 1478.621 1108.866, 1405 1106.119 C 1388.225 1105.493, 1369.754 1104.535, 1363.954 1103.990 C 1358.154 1103.446, 1346.540 1103, 1338.145 1103 C 1329.751 1103, 1319.872 1102.575, 1316.192 1102.056 C 1307.645 1100.851, 1274.801 1100.267, 1265 1101.146" stroke="none" fill="#000000" fill-rule="evenodd"/>
</svg>